<?xml version="1.0" encoding="UTF-8"?>
<svg version="1.1" xmlns="http://www.w3.org/2000/svg" width="1024" height="1024">
<path d="M0 0 C337.92 0 675.84 0 1024 0 C1024 337.92 1024 675.84 1024 1024 C686.08 1024 348.16 1024 0 1024 C0 686.08 0 348.16 0 0 Z " fill="#7C521D" transform="translate(0,0)"/>
<path d="M0 0 C265.65 0 531.3 0 805 0 C805 50.16 805 100.32 805 152 C539.35 152 273.7 152 0 152 C0 101.84 0 51.68 0 0 Z " fill="#FDF6E6" transform="translate(109,608)"/>
<path d="M0 0 C0.96897217 0.51167725 0.96897217 0.51167725 1.95751953 1.03369141 C17.99093898 9.50618748 32.46977313 19.95437576 46 32 C46.51401367 32.4522998 47.02802734 32.90459961 47.55761719 33.37060547 C65.73750555 49.40465228 79.92124645 68.0628413 92 89 C92.53850586 89.90637207 92.53850586 89.90637207 93.08789062 90.83105469 C118.20911436 133.22011768 126.09129779 187.8501246 117 236 C116.83371094 236.91475098 116.66742187 237.82950195 116.49609375 238.77197266 C110.8036651 269.44256741 99.42361089 298.08553526 82 324 C81.27296875 325.69576172 81.27296875 325.69576172 80.53125 327.42578125 C78 330 78 330 74.90905762 330.25138855 C73.14326355 330.20659111 73.14326355 330.20659111 71.34179688 330.16088867 C70.15807495 330.13766037 68.97435303 330.11443207 67.75476074 330.09049988 C66.8456897 330.06063492 65.93661865 330.03076996 65 330 C65.01420392 328.87300847 65.02840784 327.74601694 65.04304218 326.58487415 C65.38419158 299.1332568 65.60384227 271.6827019 65.69690418 244.2290926 C65.74470812 230.95225839 65.83164167 217.67785613 66.01147461 204.40209961 C66.16816357 192.82750277 66.2506395 181.25513106 66.24489135 169.67943352 C66.24441742 163.55174986 66.2804866 157.42930422 66.40552711 151.30278969 C66.52221793 145.52782215 66.53917857 139.76089663 66.48166275 133.98511887 C66.47783954 131.87303715 66.50959276 129.76052541 66.58069038 127.64963722 C66.92450038 118.02070964 66.92450038 118.02070964 64 109 C58.77935352 103.66171183 52.14998453 100.38170311 45.47481191 97.20532835 C42.23432271 95.62708578 39.27396245 93.78017752 36.24609375 91.828125 C21.71245221 82.86981551 7.13315782 73.98910155 -7.46777344 65.14111328 C-12.73192197 61.95074777 -17.99294763 58.75523918 -23.25421143 55.56011963 C-24.99669477 54.50200708 -26.73929365 53.44408508 -28.48193359 52.38623047 C-33.80712936 49.15356552 -39.1319084 45.92022073 -44.4551239 42.68429565 C-62.30561161 31.81582497 -62.30561161 31.81582497 -80.22680664 21.06469727 C-83.98353013 18.82957484 -87.70741527 16.56220869 -91.3828125 14.1953125 C-92.41378052 13.54272461 -92.41378052 13.54272461 -93.46557617 12.87695312 C-94.73587816 12.07045212 -95.99735852 11.24979737 -97.24731445 10.41210938 C-99.10256433 9.18812695 -99.10256433 9.18812695 -102 8 C-106.13272292 9.24564134 -109.75576952 11.47330965 -113.48046875 13.62109375 C-114.09182175 13.97352646 -114.70317474 14.32595917 -115.33305359 14.68907166 C-121.71689368 18.38548666 -128.0193029 22.21424614 -134.3125 26.0625 C-136.77665395 27.56493557 -139.24177875 29.06577405 -141.70703125 30.56640625 C-142.32220612 30.94105011 -142.93738098 31.31569397 -143.57119751 31.70169067 C-149.53097152 35.32868927 -155.51345022 38.91739183 -161.5 42.5 C-173.91808179 49.93638063 -186.29196996 57.44433925 -198.65771484 64.96728516 C-201.81902551 66.88993473 -204.98157672 68.81052507 -208.14453125 70.73046875 C-215.53791793 75.22085121 -222.9299583 79.71286268 -230.28515625 84.265625 C-231.10028466 84.76717669 -231.91541307 85.26872837 -232.75524235 85.78547859 C-234.47969378 86.86266255 -236.19164504 87.96040283 -237.88418484 89.08706474 C-242.48944688 92.09969995 -246.69156022 94.34435067 -251.96998596 95.94192505 C-258.83078438 98.35574665 -265.2987977 101.42939698 -269 108 C-273.88329041 122.2194381 -271.8694 139.48096844 -271.53398967 154.24777365 C-271.41784745 160.43216826 -271.43279814 166.61625801 -271.43348694 172.80154419 C-271.41505059 184.49739204 -271.27975469 196.18881227 -271.10182053 207.88320267 C-270.90488355 221.20360735 -270.83919868 234.52305214 -270.78420055 247.84472251 C-270.66820986 275.2319003 -270.38847683 302.61542699 -270 330 C-272.10147565 330.07155287 -274.20364692 330.12289846 -276.3059082 330.16552734 C-277.47644241 330.19625336 -278.64697662 330.22697937 -279.85298157 330.25863647 C-283 330 -283 330 -284.90333557 328.77597046 C-286.27896184 327.14599049 -287.21929075 325.52540092 -288.1875 323.625 C-288.57856934 322.95307617 -288.96963867 322.28115234 -289.37255859 321.58886719 C-290.19985913 320.15189002 -291.00514703 318.70204643 -291.78955078 317.24121094 C-292.9927996 315.01333192 -294.26296801 312.83930088 -295.55859375 310.6640625 C-309.05103292 287.69134888 -316.91823185 263.02777404 -322 237 C-322.27166992 235.6385083 -322.27166992 235.6385083 -322.54882812 234.24951172 C-327.30154826 209.52572126 -326.77449241 181.67475116 -322 157 C-321.81195801 156.0198291 -321.62391602 155.0396582 -321.43017578 154.02978516 C-315.26296675 123.15448969 -302.57155251 93.47703119 -284 68 C-283.59571777 67.4416748 -283.19143555 66.88334961 -282.77490234 66.30810547 C-276.73152446 58.03229469 -270.08906663 50.39227936 -263 43 C-262.49597656 42.46874512 -261.99195313 41.93749023 -261.47265625 41.39013672 C-253.56195726 33.08735508 -245.20358704 25.83044762 -236 19 C-235.43168457 18.57090332 -234.86336914 18.14180664 -234.27783203 17.69970703 C-225.29816791 10.93357495 -215.92056286 5.27511958 -206 0 C-204.88238281 -0.60585938 -203.76476562 -1.21171875 -202.61328125 -1.8359375 C-140.37653787 -34.39054173 -61.64179215 -33.42826939 0 0 Z " fill="#FDF6E5" transform="translate(614,261)"/>
<path d="M0 0 C4.16380238 2.00665641 8.03229996 4.40914512 11.9375 6.875 C13.05415039 7.56319824 14.17080078 8.25139648 15.32128906 8.96044922 C18.55692857 10.95898747 21.77967772 12.97690326 25 15 C26.48502069 15.922932 27.97059867 16.84496867 29.45703125 17.765625 C31.98227155 19.33353065 34.5012253 20.91086533 37.015625 22.49609375 C41.65959815 25.42151453 46.3305173 28.30303927 51 31.1875 C59.57742388 36.48912381 68.12995558 41.82960862 76.67431641 47.18432617 C82.08374489 50.56924709 87.50598606 53.93153418 92.94921875 57.26171875 C93.52913071 57.61688065 94.10904266 57.97204254 94.70652771 58.33796692 C97.50068814 60.04886727 100.29675762 61.75637877 103.09643555 63.45825195 C119.47299066 73.47299066 119.47299066 73.47299066 123 77 C123.11201143 78.960379 123.15302967 80.92482729 123.1673584 82.88835144 C123.17884918 84.16842072 123.19033997 85.44848999 123.20217896 86.76734924 C123.20980479 88.19930952 123.21727637 89.63127062 123.22460938 91.06323242 C123.23577896 92.56101735 123.2472921 94.05879975 123.25912476 95.55657959 C123.29575535 100.48950701 123.32091318 105.4224604 123.34375 110.35546875 C123.34769587 111.19410784 123.35164173 112.03274693 123.35570717 112.89679933 C123.39213324 120.80365352 123.42358556 128.71051651 123.44481659 136.61742687 C123.47239102 146.73824894 123.5231432 156.85837003 123.60529089 166.97890013 C123.66106444 174.09062558 123.69005017 181.20216077 123.6992898 188.31409723 C123.70555124 192.56348756 123.72370537 196.81205697 123.77067566 201.06120872 C123.81434232 205.06123858 123.82483157 209.05999877 123.81004715 213.06022644 C123.81037586 214.52680098 123.82265777 215.99342998 123.84789658 217.45978737 C124.0277683 228.49457507 124.0277683 228.49457507 121.54934788 232.12484455 C119.77826162 233.68354325 118.05407587 234.84856663 116 236 C115.20206528 236.58143265 114.40413055 237.1628653 113.58201599 237.76191711 C112.85813187 238.23662949 112.13424774 238.71134186 111.38842773 239.20043945 C110.55323105 239.75153885 109.71803436 240.30263824 108.85752869 240.87043762 C107.97513016 241.44557602 107.09273163 242.02071442 106.18359375 242.61328125 C105.25007584 243.22713181 104.31655792 243.84098236 103.35475159 244.47343445 C100.38530493 246.42436052 97.41145097 248.36844901 94.4375 250.3125 C92.46781539 251.60568798 90.49841184 252.89930416 88.52929688 254.19335938 C79.23852626 260.2934252 69.9286746 266.36210497 60.56665039 272.35229492 C58.6997896 273.55075811 56.845855 274.76943 55 276 C53.02226734 276.24609566 53.02226734 276.24609566 50.72895813 276.24050903 C49.85817627 276.24325836 48.98739441 276.24600769 48.09022522 276.24884033 C47.13788498 276.24164978 46.18554474 276.23445923 45.2043457 276.22705078 C43.69676193 276.22748886 43.69676193 276.22748886 42.15872192 276.22793579 C38.83098773 276.22654055 35.50347641 276.21097005 32.17578125 276.1953125 C29.87078473 276.19158307 27.56578663 276.18873577 25.26078796 276.18673706 C19.18952062 276.17909514 13.11834873 276.1594418 7.04711914 276.1373291 C0.85369152 276.11688273 -5.3397515 276.10773793 -11.53320312 276.09765625 C-23.68884406 276.07619649 -35.8444141 276.04205376 -48 276 C-48.21033011 256.17239155 -48.36899201 236.34500974 -48.46630955 216.51651669 C-48.51269903 207.30954107 -48.57593175 198.10325896 -48.67895508 188.89672852 C-48.76871794 180.87136815 -48.82673717 172.84651002 -48.84679645 164.8206616 C-48.85852108 160.57150404 -48.88603006 156.32378316 -48.95157051 152.07508659 C-49.012801 148.07324933 -49.03147837 144.07343583 -49.01796913 140.07117462 C-49.02043916 138.60496316 -49.03826567 137.13868198 -49.07284927 135.67287636 C-49.32088225 124.61494621 -49.32088225 124.61494621 -46.04416752 120.60874653 C-43.77152142 118.81148644 -41.54279843 117.37979944 -39 116 C-37.9066333 115.27401611 -36.8132666 114.54803223 -35.68676758 113.80004883 C-34.68282959 113.19185303 -33.6788916 112.58365723 -32.64453125 111.95703125 C-31.52755859 111.27576172 -30.41058594 110.59449219 -29.25976562 109.89257812 C-28.11082774 109.19896914 -26.96173812 108.50561143 -25.8125 107.8125 C-23.52611206 106.42519231 -21.24159364 105.03484687 -18.95703125 103.64453125 C-17.95647705 103.03971924 -16.95592285 102.43490723 -15.92504883 101.81176758 C-13.85353132 100.52867506 -11.82289144 99.17848575 -9.82470703 97.78393555 C-6.91367836 95.94548382 -5.44082639 95.46302478 -2.06689453 96.203125 C2.84342151 98.09625889 7.17347953 101.13999784 11.5625 104 C12.62500977 104.67973877 13.68751953 105.35947754 14.78222656 106.05981445 C16.89532951 107.41324949 19.00528051 108.77162015 21.11181641 110.13525391 C23.57783404 111.72742996 26.05434056 113.29900517 28.54296875 114.85546875 C39.12194624 121.50807691 39.12194624 121.50807691 42 125 C42.52139282 127.83909607 42.52139282 127.83909607 42.54931641 131.15795898 C42.56838043 132.40282578 42.58744446 133.64769257 42.60708618 134.93028259 C42.6065633 136.28555413 42.60468909 137.64082572 42.6015625 138.99609375 C42.60934035 140.39087941 42.6180105 141.78566035 42.62753296 143.18043518 C42.64244261 146.10164759 42.64188654 149.02237654 42.63134766 151.94360352 C42.61975856 155.6811897 42.65361751 159.41679341 42.700037 163.15405178 C42.72955073 166.03411866 42.73125035 168.91371012 42.72501755 171.79390144 C42.72604209 173.17139679 42.73648295 174.5489194 42.75664139 175.92626762 C42.89412338 186.63361289 42.89412338 186.63361289 40.76950073 189.88043213 C39.22851562 191.19995117 39.22851562 191.19995117 36 193 C35.25089355 193.52577637 34.50178711 194.05155273 33.72998047 194.59326172 C31.4528351 196.03364695 29.16847893 197.46075035 26.875 198.875 C26.07707031 199.38546875 25.27914062 199.8959375 24.45703125 200.421875 C23.29880859 201.13730469 23.29880859 201.13730469 22.1171875 201.8671875 C21.42222168 202.30144043 20.72725586 202.73569336 20.01123047 203.18310547 C18 204 18 204 14 203 C14 185.84 14 168.68 14 151 C12.35 150.34 10.7 149.68 9 149 C6.49528048 147.4320694 4.04487253 145.80057143 1.59765625 144.14453125 C-1.4610684 142.5134609 -1.4610684 142.5134609 -7 144 C-7 184.26 -7 224.52 -7 266 C-0.73 262.04 5.54 258.08 12 254 C15.01125 252.1025 18.0225 250.205 21.125 248.25 C37.15475864 238.13246555 53.11495879 227.9057542 69 217.5625 C69.99161133 216.91756592 70.98322266 216.27263184 72.00488281 215.6081543 C73.36371582 214.72123901 73.36371582 214.72123901 74.75 213.81640625 C75.54921875 213.29506104 76.3484375 212.77371582 77.171875 212.23657227 C78.93512772 211.12804671 78.93512772 211.12804671 80 210 C80.1386713 208.59910462 80.21047541 207.19151248 80.25483704 205.7844696 C80.2851149 204.87487991 80.31539276 203.96529022 80.34658813 203.02813721 C80.38832657 201.51893707 80.38832657 201.51893707 80.4309082 199.97924805 C80.46318008 198.92548477 80.49545197 197.8717215 80.52870178 196.786026 C80.81184369 187.03002539 80.98287288 177.27202342 81.11837482 167.51295757 C81.21140577 160.95491362 81.34219318 154.40247804 81.5637207 147.84741211 C81.77681825 141.51086588 81.89060974 135.17949658 81.93648338 128.83960915 C81.9707846 126.4288954 82.0398911 124.01840516 82.1451664 121.60974693 C83.08572504 108.90223146 83.08572504 108.90223146 78.03595543 97.82302856 C73.22534516 94.00209507 67.9609699 91.4040097 62.3249464 89.02159405 C59.32761186 87.70454901 56.75476251 86.08488556 54.04296875 84.2578125 C53.23303467 83.73678955 52.42310059 83.2157666 51.58862305 82.67895508 C50.79625244 82.1661499 50.00388184 81.65334473 49.1875 81.125 C40.63709111 75.63561136 32.0012125 70.30611965 23.29199219 65.07250977 C18.7876137 62.35431026 14.33922528 59.59359519 9.984375 56.640625 C9.21198486 56.12008545 8.43959473 55.5995459 7.64379883 55.06323242 C6.21914468 54.09417753 4.80404377 53.11085581 3.40112305 52.1105957 C0.61542793 50.21812232 -1.46075676 49.03098251 -4.85546875 48.8359375 C-9.59137953 50.58910696 -13.55827252 53.2750313 -17.75 56.0625 C-19.72268574 57.34700859 -21.69670018 58.62947839 -23.671875 59.91015625 C-24.70505859 60.58191895 -25.73824219 61.25368164 -26.80273438 61.94580078 C-32.15010069 65.38141014 -37.5761429 68.68699053 -43 72 C-52.26850945 77.67548243 -61.4767868 83.43497781 -70.62109375 89.30859375 C-71.44738281 89.83839844 -72.27367187 90.36820312 -73.125 90.9140625 C-73.87319063 91.41220648 -74.62138126 91.91035046 -75.39224434 92.42358971 C-78 94 -78 94 -80.62043571 95.02192116 C-83.70919453 96.34696146 -85.68006478 97.54775502 -88 100 C-89.53092969 105.58381102 -89.324423 111.08390868 -89.22705078 116.83740234 C-89.2340956 118.57227813 -89.24553459 120.3071408 -89.2610321 122.04196167 C-89.29060992 126.74472438 -89.25876659 131.4452988 -89.21586847 136.14788389 C-89.18146821 141.0646947 -89.20358297 145.98124381 -89.21969604 150.89810181 C-89.24161402 160.20555176 -89.21272626 169.51212262 -89.165573 178.81945097 C-89.11435875 189.41678658 -89.11979976 200.01385631 -89.12999368 210.61128306 C-89.14969144 232.40796033 -89.09078292 254.20348357 -89 276 C-102.86 276 -116.72 276 -131 276 C-131.11279066 250.12269974 -131.20492802 224.24559794 -131.25906086 198.36811447 C-131.28486176 186.3532304 -131.32004846 174.3385097 -131.37719727 162.32373047 C-131.42697432 151.85378992 -131.45927728 141.38396765 -131.47044247 130.91391206 C-131.47697085 125.36809542 -131.49235377 119.82261722 -131.52865028 114.27690887 C-131.56251958 109.05991883 -131.57307125 103.84340752 -131.56553841 98.62631798 C-131.56691701 96.70902851 -131.5769033 94.79172347 -131.59602737 92.87452888 C-131.62082417 90.26103558 -131.61495485 87.64936106 -131.60127258 85.03582764 C-131.61583679 84.27318029 -131.630401 83.51053295 -131.64540654 82.72477508 C-131.59139373 78.9205866 -131.34842121 77.35138271 -128.62326336 74.60306168 C-127.75758645 74.07405132 -126.89190954 73.54504097 -126 73 C-125.15074951 72.44401123 -124.30149902 71.88802246 -123.42651367 71.31518555 C-122.51619385 70.7612915 -121.60587402 70.20739746 -120.66796875 69.63671875 C-119.63430176 69.00475586 -118.60063477 68.37279297 -117.53564453 67.72167969 C-116.43075684 67.05040039 -115.32586914 66.37912109 -114.1875 65.6875 C-111.83359379 64.25039929 -109.48122787 62.81078635 -107.12890625 61.37109375 C-106.53241272 61.00641998 -105.93591919 60.64174622 -105.3213501 60.26602173 C-99.3945023 56.63868163 -93.50897308 52.94639749 -87.625 49.25 C-78.93867183 43.80388276 -70.19042131 38.4763243 -61.38671875 33.22265625 C-55.53542578 29.72873468 -49.70551734 26.19982447 -43.87936401 22.66421509 C-42.07429923 21.56965485 -40.26781902 20.47746018 -38.46118164 19.38549805 C-32.8617951 15.99530741 -27.29246048 12.56857117 -21.7890625 9.0234375 C-20.83765381 8.41556396 -19.88624512 7.80769043 -18.90600586 7.18139648 C-17.14812101 6.05372954 -15.39826637 4.91340133 -13.65844727 3.75805664 C-8.96133435 0.75576329 -5.70357003 -1.19532265 0 0 Z " fill="#FCF6E5" transform="translate(515,315)"/>
<path d="M0 0 C1.18287598 0.01087646 1.18287598 0.01087646 2.38964844 0.02197266 C71.99700619 0.94818693 143.44680424 27.4356334 198 70 C199.21816406 70.94552734 199.21816406 70.94552734 200.4609375 71.91015625 C202.99942501 73.91055013 205.50304275 75.94800862 208 78 C208.98871094 78.80179687 209.97742188 79.60359375 210.99609375 80.4296875 C218.65454598 86.74816983 225.77322289 93.56404463 232.8125 100.5625 C233.68366455 101.42447998 234.5548291 102.28645996 235.45239258 103.17456055 C241.39201697 109.14242852 246.74432779 115.4283555 252 122 C253.07225597 123.28247803 254.1485686 124.56158479 255.23046875 125.8359375 C294.10577376 172.11084006 318.78860781 231.14183307 326 291 C326.10296387 291.79599609 326.20592773 292.59199219 326.31201172 293.41210938 C329.51883998 318.80329934 329.41527869 345.64143829 326 371 C325.87641113 371.94713867 325.75282227 372.89427734 325.62548828 373.87011719 C321.55183135 404.17812473 313.57582613 433.70063274 302 462 C297.71 462 293.42 462 289 462 C290.68642677 456.16755788 292.52070679 450.48768124 294.70214844 444.82397461 C302.77937356 423.72432535 308.68013383 401.35616258 312 379 C312.22212158 377.52370117 312.22212158 377.52370117 312.44873047 376.01757812 C324.11764472 294.77480378 303.03760954 211.48848645 254.22412109 145.60302734 C247.88879653 137.17134234 241.36323523 129.00252757 234.15234375 121.30078125 C232.24795987 119.26506055 230.42902363 117.18666212 228.625 115.0625 C221.41523779 106.77894342 213.45072733 99.00723659 205 92 C204.46455566 91.55076172 203.92911133 91.10152344 203.37744141 90.63867188 C182.65115508 73.28643216 160.35991595 58.50710461 135.89794922 46.91064453 C133.99215638 45.9962366 132.10731514 45.04695388 130.22265625 44.08984375 C108.3157482 33.13638973 84.81800459 26.34700782 61 21 C59.874729 20.7421875 58.74945801 20.484375 57.59008789 20.21875 C49.16740205 18.33982954 40.74382714 16.98239341 32.1875 15.875 C31.20263611 15.74659729 31.20263611 15.74659729 30.19787598 15.61560059 C20.13828289 14.31095803 10.15200829 13.18732232 0 13 C-0.92603027 12.97953613 -1.85206055 12.95907227 -2.80615234 12.93798828 C-55.45546938 11.92822963 -107.48949383 21.89826875 -155 45 C-155.70366699 45.33741211 -156.40733398 45.67482422 -157.13232422 46.02246094 C-161.79923485 48.2656419 -166.41349012 50.59698642 -171 53 C-171.63292969 53.3290332 -172.26585937 53.65806641 -172.91796875 53.99707031 C-193.12653296 64.6034922 -212.01273235 78.5264882 -228.7890625 93.97265625 C-230.73982911 95.7614334 -232.72980395 97.47843119 -234.75 99.1875 C-243.8552695 107.1476849 -252.38962311 115.82863223 -259.87890625 125.32421875 C-262.07662214 128.0966596 -264.37630947 130.759216 -266.6875 133.4375 C-299.86651806 173.38565312 -322.41685254 223.18142613 -331.75 274.125 C-331.94891846 275.20773193 -332.14783691 276.29046387 -332.3527832 277.40600586 C-335.38686623 294.94277147 -336.41363606 312.41267398 -336.375 330.1875 C-336.37412384 331.18346191 -336.37324768 332.17942383 -336.37234497 333.20556641 C-336.24860766 376.19250856 -327.48996969 418.02236092 -311.25 457.87890625 C-310 461 -310 461 -310 462 C-314.29 462 -318.58 462 -323 462 C-330.83815984 443.30900345 -336.76852 424.29929233 -341.39501953 404.5703125 C-341.891801 402.45969294 -342.40976784 400.35407062 -342.93359375 398.25 C-345.66745725 386.69128179 -346.74518929 374.79414355 -348 363 C-348.08439331 362.25406082 -348.16878662 361.50812164 -348.2557373 360.73957825 C-348.88248969 354.95157342 -349.17187852 349.23797487 -349.203125 343.41796875 C-349.21364647 342.09190109 -349.21364647 342.09190109 -349.22438049 340.73904419 C-349.24182226 337.88847713 -349.24823669 335.03811854 -349.25 332.1875 C-349.25067474 331.20913177 -349.25134949 330.23076355 -349.25204468 329.2227478 C-349.18597787 268.73580328 -332.69133927 209.1531288 -300 158 C-299.60393555 157.37561035 -299.20787109 156.7512207 -298.79980469 156.10791016 C-289.41075845 141.40495079 -278.88152526 127.59356967 -267.34033203 114.51953125 C-266.15531766 113.17608326 -264.98111957 111.82311138 -263.80859375 110.46875 C-259.05112234 105.05227401 -254.02105824 99.92059955 -248.9375 94.8125 C-248.2765332 94.14686035 -247.61556641 93.4812207 -246.93457031 92.79541016 C-228.01356189 73.93537673 -206.00298752 58.4479004 -183 45 C-182.24444824 44.55301758 -181.48889648 44.10603516 -180.71044922 43.64550781 C-139.34754106 19.33703333 -90.83094628 4.59081503 -43 1 C-42.29214355 0.94360352 -41.58428711 0.88720703 -40.85498047 0.82910156 C-27.25263179 -0.21985893 -13.63408201 -0.1947726 0 0 Z " fill="#FBF6E6" transform="translate(522,129)"/>
<path d="M0 0 C18.14503932 -1.72444935 18.14503932 -1.72444935 25.375 4.1875 C26.97331736 5.60737068 28.56358592 7.03597145 30.15429688 8.46435547 C70.39566498 41.94559957 129.9301568 59.11035116 181 65 C181.84208008 65.10296387 182.68416016 65.20592773 183.55175781 65.31201172 C217.03373162 69.32148758 250.92929911 67.15394173 284 61 C284.94375488 60.82629883 285.88750977 60.65259766 286.85986328 60.47363281 C317.99287663 54.59988906 348.05556831 43.90061325 376 29 C377.1748999 28.37955811 377.1748999 28.37955811 378.37353516 27.74658203 C387.14625182 23.09600571 395.79952288 18.32828327 404.0625 12.8125 C404.67448242 12.40612305 405.28646484 11.99974609 405.91699219 11.58105469 C408.68513536 9.70586092 411.21583191 7.81037625 413.734375 5.59765625 C421.06908161 -0.72574991 427.15114548 -0.79874592 436.44921875 -0.28125 C437.62097656 -0.1884375 438.79273438 -0.095625 440 0 C436.7061418 4.5860641 432.84234129 7.70754348 428.375 11.0625 C427.62935791 11.62614258 426.88371582 12.18978516 426.11547852 12.77050781 C413.63693794 22.10498256 400.68958547 30.54786533 386.96679688 37.93212891 C385.02164243 38.98824926 383.09638469 40.07476485 381.171875 41.16796875 C305.87097989 83.30239551 209.35590492 90.62801163 126.875 68.1875 C91.75735745 58.23347631 57.02570146 42.85270474 27 22 C26.38624512 21.5762207 25.77249023 21.15244141 25.14013672 20.71582031 C21.04501874 17.87511197 17.00692603 14.96357449 13 12 C12.38479492 11.54641113 11.76958984 11.09282227 11.13574219 10.62548828 C9.29180399 9.25941442 7.45674961 7.88236238 5.625 6.5 C5.0587793 6.078396 4.49255859 5.65679199 3.90917969 5.22241211 C2.56775882 4.19658258 1.27795793 3.10388392 0 2 C0 1.34 0 0.68 0 0 Z " fill="#FBF5E6" transform="translate(291,773)"/>
<path d="M0 0 C4.08926849 -0.0750148 8.17826207 -0.12900317 12.26806641 -0.16479492 C13.65485627 -0.17973947 15.04160007 -0.20010278 16.42822266 -0.22631836 C26.98187728 -0.42062752 37.42820483 -0.47208694 45.53125 7.19140625 C53.24721567 16.69271504 52.71484111 29.43347375 52 41 C50.72298413 50.2771447 48.49806026 57.9659905 40.79003906 63.90966797 C32.59387908 68.9020371 23.12660342 68.36647447 13.875 68.1875 C12.52345254 68.17241432 11.17188865 68.15873283 9.8203125 68.14648438 C6.54644629 68.11140724 3.2734432 68.06225097 0 68 C0 64.37 0 60.74 0 57 C1.65 57 3.3 57 5 57 C5 41.82 5 26.64 5 11 C3.35 11 1.7 11 0 11 C0 7.37 0 3.74 0 0 Z " fill="#7B501D" transform="translate(362,651)"/>
<path d="M0 0 C5.46823365 4.99273507 8.51802854 11.85618993 9.37011719 19.18212891 C9.49980628 22.62994874 9.49697578 26.05040487 9.4375 29.5 C9.44458984 30.65886719 9.45167969 31.81773437 9.45898438 33.01171875 C9.38859951 42.59488945 8.1914365 51.35175492 2 59 C-4.52788826 65.18431519 -11.57434677 65.52468097 -20.23046875 65.36328125 C-25.70696921 64.83549416 -29.75483304 63.54689651 -34 60 C-40.79471588 51.73002221 -42.38133083 42.64445347 -42.3125 32.25 C-42.30758545 31.37182617 -42.3026709 30.49365234 -42.29760742 29.58886719 C-42.1210754 19.75739166 -40.84819654 9.58569462 -34 2 C-24.08127182 -5.90336907 -10.96355675 -6.46102792 0 0 Z " fill="#7B4F1C" transform="translate(516,654)"/>
<path d="M0 0 C6.42758132 4.83796443 8.65369286 12.34810742 10 20 C11.08072403 32.0352223 10.92724719 44.55177257 5.1875 55.4375 C0.72635022 60.66341831 -3.74435264 64.67849636 -10.7578125 65.37109375 C-19.26832738 65.61280329 -27.11090971 65.71794494 -34 60 C-41.05651156 51.81780684 -41.36420289 42.66152866 -41.375 32.3125 C-41.39949219 31.09626953 -41.42398438 29.88003906 -41.44921875 28.62695312 C-41.47842053 19.55979924 -40.2978203 10.99005374 -34.6875 3.5625 C-24.9974653 -5.67683541 -11.52872749 -6.76730225 0 0 Z " fill="#7B501C" transform="translate(736,654)"/>
<path d="M0 0 C6.02179404 4.82550014 8.66070374 11.56198745 10 19 C11.15598144 32.68756776 11.83106044 48.36863581 2.546875 59.4453125 C-3.11918933 65.13999332 -9.45217254 65.34679409 -17.13818359 65.38500977 C-24.17695115 65.22747626 -29.41589805 63.26300808 -34.61328125 58.53125 C-42.32238948 49.25303125 -41.72756551 35.3692727 -41 24 C-40.06208067 14.36606321 -37.53780266 6.43470959 -30 0 C-21.22325267 -6.14372313 -8.87082252 -5.80415145 0 0 Z " fill="#7B501C" transform="translate(880,654)"/>
<path d="M0 0 C6.6 0 13.2 0 20 0 C21.27617187 2.56394531 22.55234375 5.12789062 23.8671875 7.76953125 C25.10449762 10.25195016 26.34249823 12.73402354 27.58056641 15.21606445 C28.44066473 16.94128997 29.30004471 18.66687381 30.15869141 20.39282227 C31.39296837 22.87350493 32.62982247 25.35288776 33.8671875 27.83203125 C34.25059296 28.60400345 34.63399841 29.37597565 35.02902222 30.17134094 C35.38924469 30.89186142 35.74946716 31.6123819 36.12060547 32.35473633 C36.43593231 32.98761063 36.75125916 33.62048492 37.07614136 34.27253723 C38.10228729 36.25824054 38.10228729 36.25824054 40 39 C40.33 29.76 40.66 20.52 41 11 C39.35 11 37.7 11 36 11 C36 7.37 36 3.74 36 0 C43.26 0 50.52 0 58 0 C58 3.63 58 7.26 58 11 C56.35 11.33 54.7 11.66 53 12 C53 30.48 53 48.96 53 68 C48.38 68 43.76 68 39 68 C38.32195312 66.57171875 37.64390625 65.1434375 36.9453125 63.671875 C30.77482189 50.70503133 24.45952664 37.82543696 18 25 C17.67 35.56 17.34 46.12 17 57 C18.98 57 20.96 57 23 57 C23 60.63 23 64.26 23 68 C15.41 68 7.82 68 0 68 C0 64.37 0 60.74 0 57 C2.475 56.505 2.475 56.505 5 56 C5 41.48 5 26.96 5 12 C3.35 11.67 1.7 11.34 0 11 C0 7.37 0 3.74 0 0 Z " fill="#7C511F" transform="translate(142,651)"/>
<path d="M0 0 C4.55318701 -0.07468636 9.10600998 -0.12885256 13.65966797 -0.16479492 C15.20562968 -0.1797933 16.75154948 -0.20019887 18.29736328 -0.22631836 C37.26108042 -0.5385035 37.26108042 -0.5385035 42.53491211 4.45263672 C46.83912322 9.39292707 47.20741426 12.91537147 47.25 19.25 C47.270625 20.00152344 47.29125 20.75304687 47.3125 21.52734375 C47.34678835 26.43914972 46.68070537 29.72904567 44 34 C40.7 37 40.7 37 38 37 C39.39310984 40.15679404 40.81828457 43.29804877 42.25 46.4375 C42.64574219 47.33533203 43.04148437 48.23316406 43.44921875 49.15820312 C44.03896484 50.43920898 44.03896484 50.43920898 44.640625 51.74609375 C45.17478027 52.93223267 45.17478027 52.93223267 45.71972656 54.14233398 C47.02516538 56.47462573 47.02516538 56.47462573 51 57 C51 60.63 51 64.26 51 68 C45.72 68 40.44 68 35 68 C25 45.67123288 25 45.67123288 25 40 C22.69 40 20.38 40 18 40 C18 45.61 18 51.22 18 57 C19.65 57 21.3 57 23 57 C23 60.63 23 64.26 23 68 C15.41 68 7.82 68 0 68 C0 64.37 0 60.74 0 57 C1.98 56.505 1.98 56.505 4 56 C4.33 41.15 4.66 26.3 5 11 C3.35 11 1.7 11 0 11 C0 7.37 0 3.74 0 0 Z " fill="#7C511D" transform="translate(420,651)"/>
<path d="M0 0 C6.27 0 12.54 0 19 0 C20.76102583 3.64323499 22.52123591 7.286849 24.27954102 10.93139648 C24.87544594 12.16598842 25.47178579 13.40037055 26.06860352 14.63452148 C26.93626048 16.42894409 27.80211808 18.22423637 28.66796875 20.01953125 C29.18641357 21.09307861 29.7048584 22.16662598 30.23901367 23.27270508 C32.54650601 28.15673192 34.76476538 33.08248383 37 38 C37.33 29.09 37.66 20.18 38 11 C36.68 11 35.36 11 34 11 C34 7.37 34 3.74 34 0 C40.93 0 47.86 0 55 0 C55 3.63 55 7.26 55 11 C54.01 11.33 53.02 11.66 52 12 C51.67 30.48 51.34 48.96 51 68 C46.71 68 42.42 68 38 68 C24.3667426 39.76993166 24.3667426 39.76993166 18 26 C17.67 35.9 17.34 45.8 17 56 C18.65 56.33 20.3 56.66 22 57 C22 60.63 22 64.26 22 68 C14.74 68 7.48 68 0 68 C0 64.37 0 60.74 0 57 C2.97 56.505 2.97 56.505 6 56 C5.67 41.48 5.34 26.96 5 12 C3.35 12 1.7 12 0 12 C0 8.04 0 4.08 0 0 Z " fill="#7D5220" transform="translate(584,651)"/>
<path d="M0 0 C6.27 0 12.54 0 19 0 C25.51909414 12.91518651 31.77987604 25.93773969 38 39 C38 30.09 38 21.18 38 12 C36.68 11.67 35.36 11.34 34 11 C34 7.37 34 3.74 34 0 C40.93 0 47.86 0 55 0 C55 3.63 55 7.26 55 11 C53.68 11 52.36 11 51 11 C51 29.81 51 48.62 51 68 C46.71 68 42.42 68 38 68 C36.11451928 64.10872987 34.23065599 60.21668174 32.34814453 56.32397461 C31.71054346 55.00606311 31.07253752 53.6883474 30.43408203 52.37084961 C29.50440622 50.4522037 28.57630178 48.53280377 27.6484375 46.61328125 C27.09333496 45.46641846 26.53823242 44.31955566 25.96630859 43.13793945 C23.26251475 37.44802117 20.63992255 31.71983218 18 26 C17.67 35.9 17.34 45.8 17 56 C18.98 56.33 20.96 56.66 23 57 C23 60.63 23 64.26 23 68 C15.41 68 7.82 68 0 68 C0 64.37 0 60.74 0 57 C2.97 56.505 2.97 56.505 6 56 C5.67 41.48 5.34 26.96 5 12 C3.35 11.67 1.7 11.34 0 11 C0 7.37 0 3.74 0 0 Z " fill="#7B501D" transform="translate(750,651)"/>
<path d="M0 0 C6.93 0 13.86 0 21 0 C22.96655902 5.24415739 24.78813179 10.36856129 26.33984375 15.7265625 C26.54807266 16.43670502 26.75630157 17.14684753 26.97084045 17.87850952 C27.62921398 20.12652632 28.28338606 22.37574058 28.9375 24.625 C29.37147821 26.10815095 29.80572128 27.59122442 30.24023438 29.07421875 C32.86343258 38.03907198 35.44559959 47.01531036 38 56 C39.32 56.33 40.64 56.66 42 57 C42 60.63 42 64.26 42 68 C34.41 68 26.82 68 19 68 C19 64.37 19 60.74 19 57 C20.65 57 22.3 57 24 57 C23.505 53.535 23.505 53.535 23 50 C16.4 50 9.8 50 3 50 C2.67 52.31 2.34 54.62 2 57 C3.65 57 5.3 57 7 57 C7 60.63 7 64.26 7 68 C-0.26 68 -7.52 68 -15 68 C-15 64.37 -15 60.74 -15 57 C-13.02 56.505 -13.02 56.505 -11 56 C-9.97841227 54.32711557 -9.97841227 54.32711557 -9.47607422 52.1862793 C-9.2425827 51.37841476 -9.00909119 50.57055023 -8.76852417 49.73820496 C-8.53295807 48.85908951 -8.29739197 47.97997406 -8.0546875 47.07421875 C-7.6707634 45.72551445 -7.6707634 45.72551445 -7.27908325 44.3495636 C-6.46154816 41.46647857 -5.6675367 38.57754676 -4.875 35.6875 C-4.07087127 32.80960353 -3.26196435 29.93312342 -2.44949341 27.05757141 C-1.94499132 25.26623398 -1.446143 23.47329243 -0.95358276 21.67863464 C-0.72639557 20.86131363 -0.49920837 20.04399261 -0.26513672 19.2019043 C-0.06846405 18.48544235 0.12820862 17.76898041 0.33084106 17.0308075 C1.0344618 14.89541307 1.94822219 12.98423424 3 11 C1.68 10.67 0.36 10.34 -1 10 C-0.67 6.7 -0.34 3.4 0 0 Z " fill="#7C511E" transform="translate(217,651)"/>
<path d="M0 0 C7.26 0 14.52 0 22 0 C26.3016342 13.77438184 30.51081785 27.56948111 34.5 41.4375 C34.84998047 42.6450293 35.19996094 43.85255859 35.56054688 45.09667969 C35.88087891 46.21848633 36.20121094 47.34029297 36.53125 48.49609375 C36.81548828 49.48794678 37.09972656 50.4797998 37.39257812 51.50170898 C38 54 38 54 38 57 C39.32 57 40.64 57 42 57 C42 60.63 42 64.26 42 68 C34.74 68 27.48 68 20 68 C20 64.37 20 60.74 20 57 C21.32 57 22.64 57 24 57 C23.505 53.535 23.505 53.535 23 50 C16.73 50 10.46 50 4 50 C3.67 52.31 3.34 54.62 3 57 C4.32 57 5.64 57 7 57 C7 60.63 7 64.26 7 68 C0.07 68 -6.86 68 -14 68 C-14 64.37 -14 60.74 -14 57 C-12.02 56.505 -12.02 56.505 -10 56 C-9.64172119 54.74340576 -9.28344238 53.48681152 -8.91430664 52.19213867 C-7.58619959 47.5347211 -6.25722145 42.87755248 -4.92797852 38.22045898 C-4.35254492 36.2039254 -3.77734831 34.18732418 -3.20239258 32.1706543 C-2.37643575 29.27374791 -1.54962995 26.37708499 -0.72265625 23.48046875 C-0.46533218 22.57725388 -0.20800812 21.674039 0.05711365 20.74345398 C0.41737389 19.4824865 0.41737389 19.4824865 0.78491211 18.19604492 C0.99587021 17.45658127 1.20682831 16.71711761 1.42417908 15.95524597 C1.91383218 14.29258971 2.45189545 12.64431366 3 11 C2.01 11 1.02 11 0 11 C0 7.37 0 3.74 0 0 Z " fill="#7C501D" transform="translate(539,651)"/>
<path d="M0 0 C4.10757963 -0.07489276 8.2148876 -0.12894754 12.32299805 -0.16479492 C13.71662328 -0.17975938 15.11020244 -0.20013851 16.50366211 -0.22631836 C34.84197918 -0.56189574 34.84197918 -0.56189574 40.57177734 4.34643555 C45.90273582 10.3130303 46.40318456 16.02123564 46.23828125 23.7109375 C45.72879667 30.7434951 44.29238859 35.19404418 39 40 C34.30739198 43.83940656 30.81797168 44.11759607 24.8125 44.0625 C23.54019531 44.05347656 22.26789063 44.04445313 20.95703125 44.03515625 C19.49330078 44.01775391 19.49330078 44.01775391 18 44 C18 48.29 18 52.58 18 57 C19.65 57 21.3 57 23 57 C23 60.63 23 64.26 23 68 C15.41 68 7.82 68 0 68 C0 64.37 0 60.74 0 57 C1.98 56.505 1.98 56.505 4 56 C4.33 41.15 4.66 26.3 5 11 C3.35 11 1.7 11 0 11 C0 7.37 0 3.74 0 0 Z " fill="#7A4F1B" transform="translate(262,651)"/>
<path d="M0 0 C14.52 0 29.04 0 44 0 C44 6.6 44 13.2 44 20 C39.71 20 35.42 20 31 20 C31 17.69 31 15.38 31 13 C27.04 13 23.08 13 19 13 C19 17.62 19 22.24 19 27 C24.28 27 29.56 27 35 27 C35 30.63 35 34.26 35 38 C29.72 38 24.44 38 19 38 C19 43.94 19 49.88 19 56 C23.29 56 27.58 56 32 56 C32 53.03 32 50.06 32 47 C36.29 47 40.58 47 45 47 C45 53.93 45 60.86 45 68 C30.15 68 15.3 68 0 68 C0 64.37 0 60.74 0 57 C1.65 57 3.3 57 5 57 C5 41.82 5 26.64 5 11 C3.35 11 1.7 11 0 11 C0 7.37 0 3.74 0 0 Z " fill="#7B501D" transform="translate(312,651)"/>
<path d="M0 0 C15.84 0 31.68 0 48 0 C48 6.93 48 13.86 48 21 C44.37 21 40.74 21 37 21 C37 17.7 37 14.4 37 11 C35.02 11 33.04 11 31 11 C31 26.18 31 41.36 31 57 C32.65 57 34.3 57 36 57 C36 60.63 36 64.26 36 68 C28.08 68 20.16 68 12 68 C12 64.37 12 60.74 12 57 C13.65 57 15.3 57 17 57 C17 42.15 17 27.3 17 12 C15.35 12 13.7 12 12 12 C12 14.97 12 17.94 12 21 C8.04 21 4.08 21 0 21 C0 14.07 0 7.14 0 0 Z " fill="#7D521E" transform="translate(643,651)"/>
<path d="M0 0 C7.59 0 15.18 0 23 0 C23 3.63 23 7.26 23 11 C21.35 11 19.7 11 18 11 C18 26.18 18 41.36 18 57 C19.65 57 21.3 57 23 57 C23 60.63 23 64.26 23 68 C15.41 68 7.82 68 0 68 C0 64.37 0 60.74 0 57 C1.32 57 2.64 57 4 57 C4 41.82 4 26.64 4 11 C2.68 11 1.36 11 0 11 C0 7.37 0 3.74 0 0 Z " fill="#7A501C" transform="translate(811,651)"/>
<path d="M0 0 C3.33023865 2.59018562 4.68224133 5.04424767 6 9 C6.41379305 13.28358562 6.32438288 17.57339732 6.3125 21.875 C6.32861328 23.03386719 6.34472656 24.19273437 6.36132812 25.38671875 C6.36492473 31.68076949 6.17324287 36.49664643 3 42 C0.684196 44.11730651 -0.81373567 44.94564924 -3.9609375 45.08984375 C-7.41470249 44.83947789 -9.52385126 44.33831621 -12.375 42.3125 C-16.61508144 36.27853795 -16.36591229 29.78045873 -16.375 22.6875 C-16.39949219 21.69298828 -16.42398438 20.69847656 -16.44921875 19.67382812 C-16.47513532 13.09534001 -15.63055841 7.60952305 -12 2 C-7.84142527 -1.07372915 -4.92139526 -1.6048028 0 0 Z " fill="#FBF5E5" transform="translate(725,663)"/>
<path d="M0 0 C4.30897961 2.68294957 6.3619317 4.90745787 7.62719727 9.82592773 C8.40411702 14.35668767 8.32717487 18.9155717 8.3125 23.5 C8.32861328 24.50675781 8.34472656 25.51351562 8.36132812 26.55078125 C8.36581705 33.40087319 7.71042767 38.24532824 3.62109375 43.91015625 C0.20556967 46.20637605 -4.08432625 45.57224132 -8 45 C-11.93262454 42.44379405 -12.86054002 39.4429364 -14 35 C-14.34174675 30.87292295 -14.37017535 26.76454681 -14.375 22.625 C-14.39949219 21.52671875 -14.42398437 20.4284375 -14.44921875 19.296875 C-14.47405439 12.39256799 -13.78425646 7.83349281 -10 2 C-6.23124125 -0.51250583 -4.46849866 -0.53016086 0 0 Z " fill="#FCF6E6" transform="translate(503,662)"/>
<path d="M0 0 C3.22181088 2.63602708 5.47276439 5.13541881 7 9 C7.43262839 13.61393376 7.32420897 18.24293004 7.3125 22.875 C7.32861328 24.14214844 7.34472656 25.40929687 7.36132812 26.71484375 C7.36197266 27.94074219 7.36261719 29.16664063 7.36328125 30.4296875 C7.36626221 31.54585449 7.36924316 32.66202148 7.37231445 33.81201172 C6.83724696 38.39359295 5.26029284 41.73970716 2 45 C-2.51430716 45.67635961 -6.65603411 45.90717698 -10.5 43.3125 C-14.72623485 36.7970546 -14.33324443 30.60102685 -14.3125 23.0625 C-14.32861328 21.89525391 -14.34472656 20.72800781 -14.36132812 19.52539062 C-14.3655278 12.15496917 -14.03139374 7.1133233 -8.6875 1.625 C-5.38476209 -0.37200432 -3.79429675 -0.71143064 0 0 Z " fill="#FCF6E6" transform="translate(868,662)"/>
<path d="M0 0 C11.6 0 11.6 0 15 3 C20.17510127 8.67529693 19.59832165 14.60948921 19.5 22 C19.51546875 23.16273438 19.5309375 24.32546875 19.546875 25.5234375 C19.51757242 31.92605031 19.44221306 36.20858189 15 41 C9.60972676 44.76065575 7.27698125 44 0 44 C0 29.48 0 14.96 0 0 Z " fill="#FBF5E5" transform="translate(380,663)"/>
<path d="M0 0 C4.55794236 2.14284766 8.12833346 5.26578463 10 10 C10.59834456 15.29962324 10.25888476 18.94737626 7.328125 23.45703125 C4.05208287 27.26302137 0.44813411 28.7630326 -4.4375 29.5625 C-9.16244258 28.81645643 -12.37452 27.09472279 -16 24 C-18.76421395 20.11282414 -19.55335288 16.63943084 -19.34765625 11.953125 C-18.52402863 7.32600352 -15.71037774 4.62777568 -12.3125 1.625 C-8.02190094 -0.47982218 -4.69141426 -0.94644183 0 0 Z " fill="#F8F3E5" transform="translate(289,284)"/>
<path d="M0 0 C3.25 1.75 3.25 1.75 6 4 C6.763125 4.556875 7.52625 5.11375 8.3125 5.6875 C10.88809109 9.21701372 11.18018414 12.69059593 11 17 C9.40146303 21.88964249 6.54285928 25.52207676 2 28 C-2.63621321 29.42908364 -5.84500507 29.55528602 -10.25 27.4375 C-18.27914638 20.32075662 -18.27914638 20.32075662 -18.6875 14.0625 C-18.45073338 9.30564336 -16.93919155 6.77450426 -13.703125 3.375 C-9.4913779 -0.02530959 -5.35125659 -0.84711012 0 0 Z " fill="#F9F5E9" transform="translate(701,239)"/>
<path d="M0 0 C3.69623357 1.63699624 6.97553888 3.41855031 9.20703125 6.86328125 C11.01899712 11.74577056 10.79223594 17.22690051 8.6875 21.9375 C5.61908969 25.68777927 3.79447465 27.70660421 -1.26953125 28.23828125 C-7.04108335 28.40672901 -10.51616902 28.03544788 -15 24 C-17.92223352 19.3445797 -17.62368557 14.31287707 -17 9 C-13.51634326 1.77463787 -8.07339279 -1.59986499 0 0 Z " fill="#FAF5E8" transform="translate(525,172)"/>
<path d="M0 0 C1.9849505 2.57308399 3.10018331 4.07709919 2.7421875 7.375 C1.95782348 10.1491717 0.88552432 12.32486848 -0.5625 14.8125 C-1.01753906 15.60269531 -1.47257813 16.39289063 -1.94140625 17.20703125 C-2.29074219 17.79871094 -2.64007812 18.39039063 -3 19 C-1.87851562 18.65775391 -1.87851562 18.65775391 -0.734375 18.30859375 C0.25046875 18.02113281 1.2353125 17.73367188 2.25 17.4375 C3.22453125 17.14746094 4.1990625 16.85742188 5.203125 16.55859375 C8.00819391 15.99836351 9.38795138 15.91164641 12 17 C16 21.33333333 16 21.33333333 16 24 C14.07226562 25.51220703 14.07226562 25.51220703 11.40625 27.2578125 C10.45878906 27.88300781 9.51132812 28.50820313 8.53515625 29.15234375 C7.53355469 29.80332031 6.53195312 30.45429688 5.5 31.125 C4.49839844 31.78371094 3.49679687 32.44242187 2.46484375 33.12109375 C-0.01944619 34.75362714 -2.50780592 36.37956884 -5 38 C-6.9375 37.1875 -6.9375 37.1875 -9 36 C-9.495 34.515 -9.495 34.515 -10 33 C-5.71 30.03 -1.42 27.06 3 24 C-2.28 24.33 -7.56 24.66 -13 25 C-11.02 21.04 -9.04 17.08 -7 13 C-10.51863561 14.7593178 -13.30808264 16.63012357 -16.4140625 18.9765625 C-18 20 -18 20 -20 20 C-21.625 17.5 -21.625 17.5 -23 15 C-19.34139377 12.32212282 -15.67372566 9.65709718 -12 7 C-11.04738281 6.31035156 -10.09476563 5.62070312 -9.11328125 4.91015625 C-8.23027344 4.27980469 -7.34726562 3.64945312 -6.4375 3 C-5.63183594 2.4225 -4.82617188 1.845 -3.99609375 1.25 C-2 0 -2 0 0 0 Z " fill="#F9F4E6" transform="translate(749,289)"/>
<path d="M0 0 C5.29527836 3.00394673 9.26242152 8.09884755 11.07421875 13.8203125 C10.86339306 17.47462444 10.14954405 19.22082878 7.88671875 22.0703125 C4.67220606 23.67756885 1.45059339 23.12779435 -2.11328125 23.0703125 C-2.77328125 26.7003125 -3.43328125 30.3303125 -4.11328125 34.0703125 C-8.36099397 31.20960802 -8.36099397 31.20960802 -10.11328125 29.0703125 C-10.05078125 25.6328125 -10.05078125 25.6328125 -9.11328125 22.0703125 C-8.92765625 20.9359375 -8.74203125 19.8015625 -8.55078125 18.6328125 C-8.40640625 17.7871875 -8.26203125 16.9415625 -8.11328125 16.0703125 C-9.18578125 16.7509375 -10.25828125 17.4315625 -11.36328125 18.1328125 C-14.78002226 20.0793195 -14.78002226 20.0793195 -17.42578125 20.0078125 C-19.11328125 19.0703125 -19.11328125 19.0703125 -21.11328125 16.0703125 C-19.07185814 14.34085761 -17.03014923 12.61174202 -14.98828125 10.8828125 C-14.41851563 10.40005859 -13.84875 9.91730469 -13.26171875 9.41992188 C-12.11477891 8.44893304 -10.96469583 7.48164503 -9.81152344 6.51806641 C-8.68174353 5.55492741 -7.57242082 4.56725065 -6.48535156 3.55615234 C-2.67396674 0.08896747 -2.67396674 0.08896747 0 0 Z " fill="#FBF6E8" transform="translate(726.11328125,262.9296875)"/>
<path d="M0 0 C14.75365155 4.88188177 14.75365155 4.88188177 18 11 C18.1709543 15.18838044 17.29754994 16.63980797 14.625 19.875 C12 22 12 22 9 22 C10.485 27.94 10.485 27.94 12 34 C6.25 32.25 6.25 32.25 4 30 C3.5859375 27.6171875 3.5859375 27.6171875 3.375 24.875 C3.30023437 23.96492188 3.22546875 23.05484375 3.1484375 22.1171875 C3.09945312 21.41851562 3.05046875 20.71984375 3 20 C1.68 19.67 0.36 19.34 -1 19 C-1.66 21.31 -2.32 23.62 -3 26 C-6.01031744 26.93423645 -6.86650268 27.04449911 -10 26 C-7.24892128 17.09945121 -3.59701637 8.58356509 0 0 Z " fill="#F6EFE1" transform="translate(612,189)"/>
<path d="M0 0 C8.46772067 3.55097963 14.92278019 12.61120043 20 20 C18.35646785 22.01131557 17.54586488 22.93485931 14.9152832 23.2487793 C14.13499756 23.19117432 13.35471191 23.13356934 12.55078125 23.07421875 C11.70322266 23.01943359 10.85566406 22.96464844 9.98242188 22.90820312 C8.66081055 22.79895508 8.66081055 22.79895508 7.3125 22.6875 C6.41982422 22.62626953 5.52714844 22.56503906 4.60742188 22.50195312 C2.40391984 22.34876849 0.20177899 22.17622725 -2 22 C0.97 24.97 3.94 27.94 7 31 C6.34 32.32 5.68 33.64 5 35 C1 35 1 35 -1.3671875 33.05859375 C-3.92560574 30.38460833 -6.48176934 27.71194071 -9 25 C-9.66644531 24.30132812 -10.33289063 23.60265625 -11.01953125 22.8828125 C-12.6875 21.0625 -12.6875 21.0625 -15 18 C-14.505 16.515 -14.505 16.515 -14 15 C-11.64341603 13.82170801 -10.47426764 13.95585628 -7.8671875 14.12109375 C-7.06152344 14.16943359 -6.25585938 14.21777344 -5.42578125 14.26757812 C-4.58402344 14.32365234 -3.74226563 14.37972656 -2.875 14.4375 C-1.60076172 14.51581055 -1.60076172 14.51581055 -0.30078125 14.59570312 C1.79979124 14.72551378 3.89994191 14.8621174 6 15 C1.545 10.05 1.545 10.05 -3 5 C-1 1 -1 1 0 0 Z " fill="#F9F4E7" transform="translate(307,252)"/>
<path d="M0 0 C1.2122478 1.99664343 2.04218122 3.37290592 1.8828125 5.7421875 C0.55086545 9.14867155 -1.80933024 11.65530125 -4.1875 14.375 C-4.65736328 14.92671875 -5.12722656 15.4784375 -5.61132812 16.046875 C-8.90805289 19.87881156 -12.39145481 23.46095272 -16 27 C-16.99 26.67 -17.98 26.34 -19 26 C-20.1875 23.4375 -20.1875 23.4375 -21 21 C-19.68 19.35 -18.36 17.7 -17 16 C-19.18883848 11.9725372 -20.1482827 10.26432606 -24.625 8.875 C-25.73875 8.58625 -26.8525 8.2975 -28 8 C-29.4375 5.875 -29.4375 5.875 -30 4 C-24.63053674 2.29609033 -19.47183578 1.44118073 -13.875 0.875 C-13.08996094 0.78863281 -12.30492187 0.70226562 -11.49609375 0.61328125 C-7.64689249 0.20434419 -3.87706038 -0.10899367 0 0 Z " fill="#FBF6EA" transform="translate(777,331)"/>
<path d="M0 0 C1.68423487 0.96339601 3.31135087 2.02527558 4.92578125 3.1015625 C3.27578125 4.7515625 1.62578125 6.4015625 -0.07421875 8.1015625 C-1.06421875 7.4415625 -2.05421875 6.7815625 -3.07421875 6.1015625 C-6.42346746 5.68290641 -8.25669957 5.49501601 -11.01171875 7.5390625 C-12.59974901 11.36901783 -12.2791396 15.15125238 -11.07421875 19.1015625 C-7.22390825 21.66843617 -5.48852112 20.93444974 -1.07421875 20.1015625 C-0.74421875 19.1115625 -0.41421875 18.1215625 -0.07421875 17.1015625 C2.23578125 17.4315625 4.54578125 17.7615625 6.92578125 18.1015625 C6.54981916 20.88368194 6.25259666 22.6894909 4.48828125 24.9140625 C2.92578125 26.1015625 2.92578125 26.1015625 0.92578125 26.1015625 C0.92578125 28.7415625 0.92578125 31.3815625 0.92578125 34.1015625 C-1.05421875 34.5965625 -1.05421875 34.5965625 -3.07421875 35.1015625 C-3.40421875 33.7815625 -3.73421875 32.4615625 -4.07421875 31.1015625 C-4.73421875 31.1015625 -5.39421875 31.1015625 -6.07421875 31.1015625 C-6.07421875 30.4415625 -6.07421875 29.7815625 -6.07421875 29.1015625 C-6.6775 28.88242188 -7.28078125 28.66328125 -7.90234375 28.4375 C-11.7725012 26.9019214 -14.63146026 25.533522 -17.63671875 22.6015625 C-19.76782924 17.41277175 -19.95984496 12.62726447 -19.07421875 7.1015625 C-17.47851185 3.80923443 -15.16696749 1.93054431 -12.26171875 -0.2734375 C-8.02561521 -1.4837528 -4.05333064 -1.75567994 0 0 Z " fill="#F9F5E9" transform="translate(460.07421875,178.8984375)"/>
<path d="M0 0 C1.4540625 0.0309375 1.4540625 0.0309375 2.9375 0.0625 C4.94379174 4.18446906 6.94146221 8.31055701 8.9375 12.4375 C9.50984375 13.613125 10.0821875 14.78875 10.671875 16 C11.21328125 17.12148437 11.7546875 18.24296875 12.3125 19.3984375 C12.81523437 20.43532715 13.31796875 21.4722168 13.8359375 22.54052734 C14.9375 25.0625 14.9375 25.0625 14.9375 27.0625 C12.6275 27.0625 10.3175 27.0625 7.9375 27.0625 C7.6075 26.0725 7.2775 25.0825 6.9375 24.0625 C3.6375 24.0625 0.3375 24.0625 -3.0625 24.0625 C-3.3925 25.7125 -3.7225 27.3625 -4.0625 29.0625 C-6.3725 29.3925 -8.6825 29.7225 -11.0625 30.0625 C-4.56750631 0.09321441 -4.56750631 0.09321441 0 0 Z " fill="#F7F2E5" transform="translate(486.0625,172.9375)"/>
<path d="M0 0 C0.84610515 2.51716282 1.67696767 5.03779273 2.5 7.5625 C2.73847656 8.26697266 2.97695313 8.97144531 3.22265625 9.69726562 C4.9850615 15.16072189 6.1312367 20.23475474 3.875 25.75 C1.01615029 29.18061966 -1.79230415 30.64567844 -6.21484375 31.35546875 C-10.41722989 31.6141847 -12.16870698 31.65779492 -15.6015625 28.94140625 C-18.29815805 25.63434364 -19.60607903 22.46022172 -20.8125 18.4375 C-21.02841797 17.77814453 -21.24433594 17.11878906 -21.46679688 16.43945312 C-22.52373766 13.1008624 -23 10.53892385 -23 7 C-21.02 6.67 -19.04 6.34 -17 6 C-16.57847656 7.21558594 -16.15695312 8.43117187 -15.72265625 9.68359375 C-15.16942192 11.26828192 -14.61602828 12.85291448 -14.0625 14.4375 C-13.78470703 15.23994141 -13.50691406 16.04238281 -13.22070312 16.86914062 C-12.95322266 17.63291016 -12.68574219 18.39667969 -12.41015625 19.18359375 C-12.16402588 19.89056396 -11.91789551 20.59753418 -11.66430664 21.32592773 C-11.12532025 23.00682632 -11.12532025 23.00682632 -10 24 C-7.66055264 23.71269945 -5.3260857 23.38063221 -3 23 C-2.67688358 17.18390446 -3.47342682 12.71494036 -5.34375 7.19921875 C-6 5 -6 5 -6 2 C-2.25 0 -2.25 0 0 0 Z " fill="#FAF5EA" transform="translate(427,185)"/>
<path d="M0 0 C0.66 0.99 1.32 1.98 2 3 C1.4375 4.9375 1.4375 4.9375 0 7 C-2.33333333 7.33333333 -4.66666667 7.66666667 -7 8 C-8.25475348 9.96699195 -8.25475348 9.96699195 -9 12 C-8.35933594 11.7834375 -7.71867187 11.566875 -7.05859375 11.34375 C-1.96391312 9.70373358 2.59536343 8.24335088 8 9 C10.4375 10.5 10.4375 10.5 12 13 C12.59800388 17.70928059 12.71746637 19.82130526 10.25 23.875 C7.49906479 26.47310548 5.45677052 27.87940641 1.640625 28.1953125 C0.45726562 28.16050781 0.45726562 28.16050781 -0.75 28.125 C-1.54921875 28.10695313 -2.3484375 28.08890625 -3.171875 28.0703125 C-3.77515625 28.04710937 -4.3784375 28.02390625 -5 28 C-4.67 26.02 -4.34 24.04 -4 22 C-1.03 21.34 1.94 20.68 5 20 C5.33 18.68 5.66 17.36 6 16 C4.2675 16.4640625 4.2675 16.4640625 2.5 16.9375 C1.00155467 17.29818772 -0.49852745 17.65212902 -2 18 C-2.70511719 18.1753125 -3.41023438 18.350625 -4.13671875 18.53125 C-8.0642479 19.30927482 -9.67334462 19.21332596 -13.0625 17 C-15 14 -15 14 -15.25 10.5625 C-12.94849629 4.00321443 -7.11421143 -0.71142114 0 0 Z " fill="#FBF6EA" transform="translate(335,234)"/>
<path d="M0 0 C3.89608498 1.48904175 7.59097018 3.24378713 11.3125 5.125 C12.38113281 5.66382813 13.44976563 6.20265625 14.55078125 6.7578125 C15.76314453 7.37269531 15.76314453 7.37269531 17 8 C16.34 9.65 15.68 11.3 15 13 C10.14036821 12.39254603 6.2594482 10.27241033 2 8 C2 9.32 2 10.64 2 12 C4.31 13.32 6.62 14.64 9 16 C8.67 17.65 8.34 19.3 8 21 C7.113125 20.690625 6.22625 20.38125 5.3125 20.0625 C2.53290845 19.1709329 -0.13136375 18.50622993 -3 18 C-3.66 19.32 -4.32 20.64 -5 22 C-4.13375 22.268125 -3.2675 22.53625 -2.375 22.8125 C0.91791964 23.97111987 3.91127875 25.38209839 7 27 C6.34 28.98 5.68 30.96 5 33 C-1 30 -7 27 -13 24 C-11.45196735 18.23684231 -8.51721614 13.62543026 -5.375 8.625 C-4.859375 7.79355469 -4.34375 6.96210938 -3.8125 6.10546875 C-2.54713205 4.06682038 -1.27621134 2.03187118 0 0 Z " fill="#F9F4E7" transform="translate(644,203)"/>
<path d="M0 0 C6.39205856 0.72362927 12.68027076 1.80343362 19 3 C18.67 4.65 18.34 6.3 18 8 C13.71 7.67 9.42 7.34 5 7 C4.67 8.65 4.34 10.3 4 12 C5.093125 11.979375 6.18625 11.95875 7.3125 11.9375 C11 12 11 12 14 13 C14 14.65 14 16.3 14 18 C10.37 17.67 6.74 17.34 3 17 C3 18.65 3 20.3 3 22 C8.94 22.99 8.94 22.99 15 24 C15 25.98 15 27.96 15 30 C8.4 29.01 1.8 28.02 -5 27 C-4.34414249 21.0972824 -3.61460074 15.37277019 -2.5 9.5625 C-2.36980469 8.85673828 -2.23960937 8.15097656 -2.10546875 7.42382812 C-1.12827621 2.25655242 -1.12827621 2.25655242 0 0 Z " fill="#F9F5E8" transform="translate(565,178)"/>
<path d="M0 0 C0.99 0.33 1.98 0.66 3 1 C3.33 1.99 3.66 2.98 4 4 C4.99 4 5.98 4 7 4 C6 7 6 7 4 9 C3.34 7.68 2.68 6.36 2 5 C-0.64 5.33 -3.28 5.66 -6 6 C-5.34 8.31 -4.68 10.62 -4 13 C-3.0925 12.690625 -2.185 12.38125 -1.25 12.0625 C2 11 2 11 4.3125 10.5 C4.869375 10.335 5.42625 10.17 6 10 C6.33 9.34 6.66 8.68 7 8 C7 8.66 7 9.32 7 10 C7.66 10.33 8.32 10.66 9 11 C9.33 11.99 9.66 12.98 10 14 C11.85804317 15.44870619 11.85804317 15.44870619 14.0625 16.6875 C14.79597656 17.12449219 15.52945312 17.56148437 16.28515625 18.01171875 C16.85105469 18.33785156 17.41695313 18.66398437 18 19 C16.3125 20.5625 16.3125 20.5625 14 22 C10.86632887 21.83929892 9.12037968 21.07340224 6.4375 19.4375 C3.89739071 17.66134332 3.89739071 17.66134332 0 18 C0.66 20.97 1.32 23.94 2 27 C0.35 27.66 -1.3 28.32 -3 29 C-8.95703125 17.0859375 -8.95703125 17.0859375 -10.00244141 14.98339844 C-10.89995164 13.1989214 -11.8289335 11.43035653 -12.76171875 9.6640625 C-14 7 -14 7 -14 4 C-12.42466914 3.13116294 -10.83935491 2.28040932 -9.25 1.4375 C-8.36828125 0.96183594 -7.4865625 0.48617187 -6.578125 -0.00390625 C-3.72646611 -1.10568355 -2.78973733 -1.07252507 0 0 Z " fill="#F9F5E8" transform="translate(386,202)"/>
<path d="M0 0 C1 3 1 3 0.3125 5.5 C-1 8 -1 8 -3.125 9.4375 C-5.32033301 10.91453483 -5.32033301 10.91453483 -5.4375 13.9375 C-4.94223331 17.40436683 -4.68007374 18.73868779 -2 21 C1.96856959 22.05828522 5.08584569 22.3047181 9 21 C9 20.071875 9 19.14375 9 18.1875 C9 16.125 9 14.0625 9 12 C12.33333333 9 12.33333333 9 15 9 C16.73704155 12.4740831 16.46041616 16.20156669 16 20 C13.80850458 24.38299083 11.59809038 27.20074724 7 29 C2.40700283 29.85672486 -1.34191535 30.04036684 -5.390625 27.5 C-11.78257568 21.9817692 -11.78257568 21.9817692 -12.23828125 17.828125 C-12.36154833 13.54621592 -12.26152314 10.58842707 -10.5 6.625 C-7.37636919 3.34518765 -4.14761411 1.71139417 0 0 Z " fill="#FAF5E9" transform="translate(263,313)"/>
<path d="M0 0 C5.63098876 3.00064027 10.88084541 6.18786361 16 10 C15.67 11.32 15.34 12.64 15 14 C11 14 11 14 8 11.9375 C5.25758708 9.72175443 5.25758708 9.72175443 2.625 10.25 C2.08875 10.4975 1.5525 10.745 1 11 C1 11.66 1 12.32 1 13 C2.96147874 14.38938077 4.96166576 15.7260411 7 17 C6.625 18.9375 6.625 18.9375 6 21 C5.34 21.33 4.68 21.66 4 22 C2.0546875 21.00390625 2.0546875 21.00390625 -0.125 19.5625 C-0.84945312 19.08941406 -1.57390625 18.61632812 -2.3203125 18.12890625 C-2.87460937 17.75636719 -3.42890625 17.38382813 -4 17 C-4.268125 17.7425 -4.53625 18.485 -4.8125 19.25 C-5.94229421 21.86636554 -7.20893202 23.80187111 -9 26 C-11.475 25.01 -11.475 25.01 -14 24 C-14 20.53791148 -13.35405381 19.67691423 -11.4453125 16.875 C-10.91292969 16.08609375 -10.38054688 15.2971875 -9.83203125 14.484375 C-9.26871094 13.66453125 -8.70539062 12.8446875 -8.125 12 C-7.56941406 11.18015625 -7.01382813 10.3603125 -6.44140625 9.515625 C-5.40692168 7.99007186 -4.36961041 6.46642909 -3.32861328 4.9453125 C-2.20792418 3.30443585 -1.10222436 1.65333654 0 0 Z " fill="#F9F4E8" transform="translate(671,218)"/>
<path d="M0 0 C9 0 9 0 12.0625 1.875 C14.79106777 6.27591575 14.77261441 9.94892942 14 15 C12.38727433 18.68623011 11.369675 19.75355 8 22 C5.36 22 2.72 22 0 22 C0 14.74 0 7.48 0 0 Z " fill="#FBF4E4" transform="translate(280,663)"/>
<path d="M0 0 C8.82352941 -0.47058824 8.82352941 -0.47058824 13.125 1.25 C16.15734734 5.69744277 15.88022293 10.78467914 15 16 C13.85546875 17.859375 13.85546875 17.859375 12 19 C7.96740923 19.40487859 4.06287095 19.13106035 0 19 C0 12.73 0 6.46 0 0 Z " fill="#FAF3E4" transform="translate(438,662)"/>
<path d="M0 0 C1.32 1.32 2.64 2.64 4 4 C2.71034824 5.37562854 1.37310707 6.70766393 0 8 C-0.66 8 -1.32 8 -2 8 C1.63566563 14.68412752 5.29224236 21.35556707 9 28 C7.75 29.5625 7.75 29.5625 6 31 C3.43912795 30.75642834 2.32809321 30.37835803 0.62792969 28.41772461 C0.22993164 27.75264893 -0.16806641 27.08757324 -0.578125 26.40234375 C-1.01640625 25.68369141 -1.4546875 24.96503906 -1.90625 24.22460938 C-2.3496875 23.46986328 -2.793125 22.71511719 -3.25 21.9375 C-3.70890625 21.17888672 -4.1678125 20.42027344 -4.640625 19.63867188 C-5.77162151 17.7654589 -6.89070522 15.88611807 -8 14 C-10.31 14.66 -12.62 15.32 -15 16 C-15.66 14.35 -16.32 12.7 -17 11 C-11.39 7.37 -5.78 3.74 0 0 Z " fill="#F9F4E7" transform="translate(360,212)"/>
<path d="M0 0 C4.55968869 2.1011185 8.13833162 5.29107409 10 10 C10.60971459 14.21647698 10.42028494 17.15943012 8.5 21 C8.005 21.66 7.51 22.32 7 23 C6.01 22.34 5.02 21.68 4 21 C3.2575 21.515625 2.515 22.03125 1.75 22.5625 C-1 24 -1 24 -3.3125 23.6875 C-3.869375 23.460625 -4.42625 23.23375 -5 23 C-4.05125 22.566875 -3.1025 22.13375 -2.125 21.6875 C1.20041937 20.20697799 1.20041937 20.20697799 3 17 C2.9218047 13.32482086 2.37379691 11.48593598 0.125 8.5625 C-4.60842374 6.19578813 -8.89468338 7.17742709 -14 8 C-14 7.34 -14 6.68 -14 6 C-14.66 5.67 -15.32 5.34 -16 5 C-10.49479267 0.50890981 -7.13458375 -1.03924379 0 0 Z " fill="#FAF6EA" transform="translate(289,284)"/>
<path d="M0 0 C2.99324263 1.0975223 3.84610901 1.67682892 5.25 4.625 C5.4975 5.40875 5.745 6.1925 6 7 C6.99 7 7.98 7 9 7 C10 10 10 10 9.0625 12.6875 C7 15 7 15 5.015625 15.3203125 C3.0075887 15.3131918 1.00133706 15.16404402 -1 15 C-1.66 18.63 -2.32 22.26 -3 26 C-7.24771272 23.13929552 -7.24771272 23.13929552 -9 21 C-8.9375 17.5625 -8.9375 17.5625 -8 14 C-7.814375 12.865625 -7.62875 11.73125 -7.4375 10.5625 C-7.293125 9.716875 -7.14875 8.87125 -7 8 C-7.66 7.67 -8.32 7.34 -9 7 C-7.68 7 -6.36 7 -5 7 C-4.9175 6.401875 -4.835 5.80375 -4.75 5.1875 C-3.79544128 2.4033704 -2.42867729 1.56688858 0 0 Z " fill="#F9F4E7" transform="translate(725,271)"/>
<path d="M0 0 C4.69734483 1.593742 5.94056979 2.94844371 8.5 7.1875 C8.5 10.45405209 8.04466247 12.27972922 6.375 15.0625 C3.32171624 16.89447026 0.97558236 16.60696684 -2.5 16.1875 C-6.28413662 14.13090401 -7.2804712 12.85828244 -8.625 8.75 C-8.5 5.1875 -8.5 5.1875 -6.5 2.1875 C-3.5 0.1875 -3.5 0.1875 0 0 Z " fill="#7A4D1B" transform="translate(284.5,289.8125)"/>
<path d="M0 0 C1.9375 1.125 1.9375 1.125 3 3 C3.52177189 7.02509747 3.35306455 9.30858192 1.5 12.9375 C-1.54254966 15.44760347 -3.24066492 15.68394664 -7.09375 15.41796875 C-9 15 -9 15 -11.5 13.375 C-13.4674199 10.25991849 -13.5923739 8.62829011 -13 5 C-9.06764917 -0.89852625 -6.88281267 -1.44901319 0 0 Z " fill="#794D1A" transform="translate(702,246)"/>
<path d="M0 0 C3.375 1.0625 3.375 1.0625 5.3125 2.75 C6.72089562 5.81533164 6.85272045 7.71845685 6.375 11.0625 C4.8125 13.9375 4.8125 13.9375 2.375 16.0625 C-1.59069988 16.69984462 -3.65780512 16.68249672 -7.0625 14.5 C-9.25521887 11.07935857 -9.25507693 9.05298721 -8.625 5.0625 C-5.94590469 1.1656341 -4.7824172 0.08245547 0 0 Z " fill="#794D1A" transform="translate(522.625,177.9375)"/>
<path d="M0 0 C1.1446875 0.12375 1.1446875 0.12375 2.3125 0.25 C2.3125 1.24 2.3125 2.23 2.3125 3.25 C3.6325 3.58 4.9525 3.91 6.3125 4.25 C6.3125 4.91 6.3125 5.57 6.3125 6.25 C7.3025 6.25 8.2925 6.25 9.3125 6.25 C10.6325 11.2 11.9525 16.15 13.3125 21.25 C7.3125 19.25 7.3125 19.25 5.3125 17.25 C4.8984375 14.8671875 4.8984375 14.8671875 4.6875 12.125 C4.61273437 11.21492187 4.53796875 10.30484375 4.4609375 9.3671875 C4.41195312 8.66851562 4.36296875 7.96984375 4.3125 7.25 C2.9925 6.92 1.6725 6.59 0.3125 6.25 C-0.3475 8.56 -1.0075 10.87 -1.6875 13.25 C-4.69781744 14.18423645 -5.55400268 14.29449911 -8.6875 13.25 C-4.83090491 0.4493865 -4.83090491 0.4493865 0 0 Z " fill="#FCF8ED" transform="translate(610.6875,201.75)"/>
<path d="M0 0 C2.06239168 3.39688042 2.06239168 3.39688042 1.8125 5.8125 C0.70803215 8.7860673 -1.04306066 10.81385095 -3.0625 13.25 C-3.79597656 14.14203125 -4.52945313 15.0340625 -5.28515625 15.953125 C-5.85105469 16.62859375 -6.41695312 17.3040625 -7 18 C-9 16 -9 16 -10 14 C-10.99 13.67 -11.98 13.34 -13 13 C-16 9.55555556 -16 9.55555556 -16 7 C-14.68 6.67 -13.36 6.34 -12 6 C-12.33 4.68 -12.66 3.36 -13 2 C-4.57142857 -0.28571429 -4.57142857 -0.28571429 0 0 Z " fill="#F9F4E8" transform="translate(777,331)"/>
<path d="M0 0 C2 1 2 1 2.77783203 3.00952148 C3.01872559 3.87134033 3.25961914 4.73315918 3.5078125 5.62109375 C3.77207031 6.55630859 4.03632813 7.49152344 4.30859375 8.45507812 C4.57800781 9.43927734 4.84742188 10.42347656 5.125 11.4375 C5.40214844 12.41783203 5.67929688 13.39816406 5.96484375 14.40820312 C8 21.6916564 8 21.6916564 8 24 C3.38 24 -1.24 24 -6 24 C-4.02 16.08 -2.04 8.16 0 0 Z " fill="#F9F4E6" transform="translate(229,667)"/>
<path d="M0 0 C2.1508925 2.1508925 2.4975571 3.1357182 3.2890625 5.9921875 C3.61777344 7.17361328 3.61777344 7.17361328 3.953125 8.37890625 C4.17484375 9.20261719 4.3965625 10.02632812 4.625 10.875 C4.85445312 11.69097656 5.08390625 12.50695312 5.3203125 13.34765625 C6.35404768 17.11955901 7 20.03637728 7 24 C2.71 24 -1.58 24 -6 24 C-4.67615763 15.72598519 -2.60695579 7.96007374 0 0 Z " fill="#F7F2E4" transform="translate(552,667)"/>
<path d="M0 0 C0.33 0 0.66 0 1 0 C1.16746774 4.80529872 1.32804214 9.61075903 1.48217773 14.41650391 C1.53561099 16.05198393 1.5909414 17.68740311 1.64819336 19.32275391 C1.73006761 21.67076494 1.80515983 24.0189089 1.87890625 26.3671875 C1.90594131 27.10057343 1.93297638 27.83395935 1.96083069 28.58956909 C2.11387171 33.77225659 2.11387171 33.77225659 1 36 C0.01 36 -0.98 36 -2 36 C-2 38.31 -2 40.62 -2 43 C11.53 43 25.06 43 39 43 C39.33 43.99 39.66 44.98 40 46 C25.15 46 10.3 46 -5 46 C-5 42.37 -5 38.74 -5 35 C-3.35 35 -1.7 35 0 35 C0 23.45 0 11.9 0 0 Z " fill="#88602E" transform="translate(317,673)"/>
<path d="M0 0 C7.59 0 15.18 0 23 0 C23 3.63 23 7.26 23 11 C21.35 11 19.7 11 18 11 C18 23.54 18 36.08 18 49 C17.67 49 17.34 49 17 49 C17 36.13 17 23.26 17 10 C18.32 10 19.64 10 21 10 C21 7.36 21 4.72 21 2 C14.4 2 7.8 2 1 2 C1 4.64 1 7.28 1 10 C2.32 10 3.64 10 5 10 C5 25.51 5 41.02 5 57 C4.67 57 4.34 57 4 57 C4 41.82 4 26.64 4 11 C2.68 11 1.36 11 0 11 C0 7.37 0 3.74 0 0 Z " fill="#8A6233" transform="translate(811,651)"/>
<path d="M0 0 C3.10860051 2.64745712 4.56524023 5.78823937 6.35546875 9.41796875 C6.66196854 10.03521317 6.96846832 10.65245758 7.28425598 11.28840637 C8.25769406 13.25201638 9.2226843 15.21964141 10.1875 17.1875 C10.84775342 18.52306042 11.50855467 19.85835015 12.16992188 21.19335938 C13.78736047 24.45867768 15.39330105 27.7292958 17 31 C17.33 25.39 17.66 19.78 18 14 C18.66 13.67 19.32 13.34 20 13 C18.68 12.67 17.36 12.34 16 12 C17.65 12 19.3 12 21 12 C21 21.9 21 31.8 21 42 C16.49885377 36.37356721 16.49885377 36.37356721 14.98535156 33.35888672 C14.6453009 32.68824188 14.30525024 32.01759705 13.95489502 31.32662964 C13.60368591 30.61813873 13.25247681 29.90964783 12.890625 29.1796875 C12.51895203 28.43921173 12.14727905 27.69873596 11.76434326 26.93582153 C10.98496543 25.37909775 10.20858549 23.82086981 9.43505859 22.26123047 C8.24820594 19.87138748 7.04860995 17.48825112 5.84765625 15.10546875 C5.0903755 13.58892609 4.33383877 12.07201162 3.578125 10.5546875 C3.21881897 9.84214813 2.85951294 9.12960876 2.48931885 8.39547729 C0 3.3449484 0 3.3449484 0 0 Z " fill="#F1EADD" transform="translate(162,650)"/>
<path d="M0 0 C2.09002372 0.70976239 4.17185651 1.44367111 6.25 2.1875 C7.99023438 2.79658203 7.99023438 2.79658203 9.765625 3.41796875 C13.27697907 5.13547889 14.82665176 6.79915297 17 10 C13.375 15.75 13.375 15.75 10 18 C9.01 17.67 8.02 17.34 7 17 C7.99 16.34 8.98 15.68 10 15 C9.67 13.35 9.34 11.7 9 10 C5.41672247 8.99782936 5.41672247 8.99782936 2 10 C1.01 9.01 0.02 8.02 -1 7 C-1.33 7.66 -1.66 8.32 -2 9 C-1.125 2.25 -1.125 2.25 0 0 Z " fill="#FBF8EC" transform="translate(612,189)"/>
<path d="M0 0 C3.63195497 -0.33785628 5.58823227 -0.22875985 8.8125 1.5625 C11.59037881 4.65785068 11.76435605 6.91550495 12 11 C7.29593201 12.86540627 3.05255964 14.36843005 -2 15 C-2.66 12.69 -3.32 10.38 -4 8 C-1.5428064 6.4528781 -0.367721 5.95515598 2.5625 6.3125 C4.38901612 6.82767121 6.19960942 7.39986981 8 8 C6.94729537 6.84188612 6.94729537 6.84188612 5 6 C5 5.01 5 4.02 5 3 C4.360625 2.87625 3.72125 2.7525 3.0625 2.625 C2.381875 2.41875 1.70125 2.2125 1 2 C0.67 1.34 0.34 0.68 0 0 Z " fill="#F6F1E3" transform="translate(384,200)"/>
<path d="M0 0 C2.31 0.33 4.62 0.66 7 1 C6.62403791 3.78211944 6.32681541 5.5879284 4.5625 7.8125 C3 9 3 9 1 9 C1 11.64 1 14.28 1 17 C-0.32 17.33 -1.64 17.66 -3 18 C-3.33 16.68 -3.66 15.36 -4 14 C-4.66 14 -5.32 14 -6 14 C-6 13.34 -6 12.68 -6 12 C-6.99 11.34 -7.98 10.68 -9 10 C-7.72530598 7.45061196 -6.50840774 7.25420387 -4 6 C-1.61493584 3.96827868 -1.02322718 3.06968154 0 0 Z " fill="#F4EEE1" transform="translate(460,196)"/>
<path d="M0 0 C3 4 3 4 3 8 C8.61 8 14.22 8 20 8 C20 6.02 20 4.04 20 2 C19.01 1.67 18.02 1.34 17 1 C17 0.67 17 0.34 17 0 C18.98 0 20.96 0 23 0 C23 3.63 23 7.26 23 11 C15.41 11 7.82 11 0 11 C0 7.37 0 3.74 0 0 Z " fill="#82572A" transform="translate(750,708)"/>
<path d="M0 0 C0.85078125 0.00322266 1.7015625 0.00644531 2.578125 0.00976562 C3.46757812 0.01814453 4.35703125 0.02652344 5.2734375 0.03515625 C6.170625 0.03966797 7.0678125 0.04417969 7.9921875 0.04882812 C10.21100398 0.06063034 12.42968768 0.0770947 14.6484375 0.09765625 C14.6484375 0.42765625 14.6484375 0.75765625 14.6484375 1.09765625 C7.95230554 1.89549325 1.39077169 2.22676478 -5.3515625 2.09765625 C-5.6815625 4.40765625 -6.0115625 6.71765625 -6.3515625 9.09765625 C-4.7015625 9.09765625 -3.0515625 9.09765625 -1.3515625 9.09765625 C-1.3515625 12.72765625 -1.3515625 16.35765625 -1.3515625 20.09765625 C-8.6115625 20.09765625 -15.8715625 20.09765625 -23.3515625 20.09765625 C-23.3515625 19.43765625 -23.3515625 18.77765625 -23.3515625 18.09765625 C-16.7515625 18.09765625 -10.1515625 18.09765625 -3.3515625 18.09765625 C-3.3515625 15.45765625 -3.3515625 12.81765625 -3.3515625 10.09765625 C-5.8265625 9.60265625 -5.8265625 9.60265625 -8.3515625 9.09765625 C-8.07005163 7.78294057 -7.77602911 6.47089858 -7.4765625 5.16015625 C-7.31414062 4.42925781 -7.15171875 3.69835937 -6.984375 2.9453125 C-5.80250103 -0.50546768 -3.19962414 -0.02133083 0 0 Z " fill="#77491A" transform="translate(225.3515625,698.90234375)"/>
<path d="M0 0 C0.99 0.33 1.98 0.66 3 1 C3 4.63 3 8.26 3 12 C10.59 12 18.18 12 26 12 C26 9.36 26 6.72 26 4 C26.33 4 26.66 4 27 4 C27 6.97 27 9.94 27 13 C10.17 13 -6.66 13 -24 13 C-24 9.04 -24 5.08 -24 1 C-23.67 1 -23.34 1 -23 1 C-23 4.63 -23 8.26 -23 12 C-15.41 12 -7.82 12 0 12 C0 8.04 0 4.08 0 0 Z " fill="#FEFEFB" transform="translate(581,707)"/>
<path d="M0 0 C0 3 0 6 0 9 C2.17259897 8.53444308 4.00601576 7.99699212 6 7 C7.99398424 6.00300788 9.82740103 5.46555692 12 5 C12 5.66 12 6.32 12 7 C11.01 7.33 10.02 7.66 9 8 C12.07322544 8.91058531 14.80097361 9.08886184 18 9 C18.33 10.65 18.66 12.3 19 14 C18.67 13.01 18.34 12.02 18 11 C16.845 11.309375 15.69 11.61875 14.5 11.9375 C13.00155467 12.29818772 11.50147255 12.65212902 10 13 C9.29488281 13.1753125 8.58976562 13.350625 7.86328125 13.53125 C3.9357521 14.30927482 2.32665538 14.21332596 -1.0625 12 C-3 9 -3 9 -2.9375 5.3125 C-2 2 -2 2 0 0 Z " fill="#F1EBDE" transform="translate(323,239)"/>
<path d="M0 0 C0.33 0.99 0.66 1.98 1 3 C2.98 3 4.96 3 7 3 C7 2.34 7 1.68 7 1 C7.66 1 8.32 1 9 1 C8.67 1.99 8.34 2.98 8 4 C4.9375 5.1875 4.9375 5.1875 2 6 C2.33 6.66 2.66 7.32 3 8 C2.01 8.33 1.02 8.66 0 9 C-0.33 10.65 -0.66 12.3 -1 14 C-3.31 14.33 -5.62 14.66 -8 15 C-7.34 11.7 -6.68 8.4 -6 5 C-4.35 4.67 -2.7 4.34 -1 4 C-0.67 2.68 -0.34 1.36 0 0 Z " fill="#FDFBF1" transform="translate(483,188)"/>
<path d="M0 0 C0.66 0.33 1.32 0.66 2 1 C1.01 2.485 1.01 2.485 0 4 C0.66 4.66 1.32 5.32 2 6 C5.01305957 5.61121812 6.39685311 4.73543126 9 3 C9.99 3 10.98 3 12 3 C13 6 13 6 12 8.875 C10.92611701 12.23088435 10.84533171 13.71363641 12 17 C13.4579186 18.79385992 13.4579186 18.79385992 15 20 C15.66 19.34 16.32 18.68 17 18 C16.67 19.65 16.34 21.3 16 23 C11.88972986 20.02709228 8.90272231 17.64589698 7.375 12.6875 C6.694375 10.8621875 6.694375 10.8621875 6 9 C3.53951544 8.09111938 3.53951544 8.09111938 1 8 C-0.875 6.6875 -0.875 6.6875 -2 5 C-1.74853421 2.86254078 -1.54074221 1.54074221 0 0 Z " fill="#734617" transform="translate(706,276)"/>
<path d="M0 0 C7.26 0 14.52 0 22 0 C22 3.63 22 7.26 22 11 C20.35 11 18.7 11 17 11 C17 10.34 17 9.68 17 9 C17.66 9 18.32 9 19 9 C19 7.02 19 5.04 19 3 C13.39 3 7.78 3 2 3 C2 5.31 2 7.62 2 10 C1.67 10 1.34 10 1 10 C1.03255208 7.98177083 1.06510417 5.96354167 1.09765625 3.9453125 C1.12649242 1.91814596 1.12649242 1.91814596 0 0 Z " fill="#835928" transform="translate(178,651)"/>
<path d="M0 0 C1.65 0 3.3 0 5 0 C8.22265625 5.17578125 8.22265625 5.17578125 9 7 C8.67 7.99 8.34 8.98 8 10 C6.0625 10.5625 6.0625 10.5625 4 11 C3.34 11.66 2.68 12.32 2 13 C1.34 13 0.68 13 0 13 C-0.19658808 11.58456585 -0.38187546 10.16755969 -0.5625 8.75 C-0.66691406 7.96109375 -0.77132813 7.1721875 -0.87890625 6.359375 C-1.00027349 3.99467126 -0.69633257 2.2488963 0 0 Z " fill="#FBF7E9" transform="translate(482,174)"/>
<path d="M0 0 C1.65 0 3.3 0 5 0 C3.68 0.33 2.36 0.66 1 1 C1 3.64 1 6.28 1 9 C7.93 9 14.86 9 22 9 C22 6.36 22 3.72 22 1 C21.01 0.67 20.02 0.34 19 0 C20.65 0 22.3 0 24 0 C24 3.63 24 7.26 24 11 C16.08 11 8.16 11 0 11 C0 7.37 0 3.74 0 0 Z " fill="#76471C" transform="translate(655,708)"/>
<path d="M0 0 C0.33 0.99 0.66 1.98 1 3 C-0.32 3.33 -1.64 3.66 -3 4 C-3 6.64 -3 9.28 -3 12 C2.94 12 8.88 12 15 12 C15 9.36 15 6.72 15 4 C14.01 3.67 13.02 3.34 12 3 C13.32 3 14.64 3 16 3 C16 6.63 16 10.26 16 14 C9.07 14 2.14 14 -5 14 C-5 10.37 -5 6.74 -5 3 C-3.68 2.67 -2.36 2.34 -1 2 C-0.67 1.34 -0.34 0.68 0 0 Z " fill="#734418" transform="translate(530,705)"/>
<path d="M0 0 C3.21524305 1.40844718 5.32183868 3.10344786 7.75 5.625 C8.67039062 6.57246094 8.67039062 6.57246094 9.609375 7.5390625 C10.29773438 8.26222656 10.29773438 8.26222656 11 9 C10.34 10.32 9.68 11.64 9 13 C5 13 5 13 3.296875 11.7578125 C2.78640625 11.21898437 2.2759375 10.68015625 1.75 10.125 C1.22921875 9.59132813 0.7084375 9.05765625 0.171875 8.5078125 C-1 7 -1 7 -1 5 C-0.34 5 0.32 5 1 5 C0.67 3.35 0.34 1.7 0 0 Z " fill="#FDF9F0" transform="translate(303,274)"/>
<path d="M0 0 C3.51716303 3.51716303 3.54676163 5.19567333 4 10 C3.34 10 2.68 10 2 10 C2 16.93 2 23.86 2 31 C2.99 31.33 3.98 31.66 5 32 C3.35 32 1.7 32 0 32 C0 21.44 0 10.88 0 0 Z " fill="#FDFCF5" transform="translate(159,675)"/>
<path d="M0 0 C6.93 0 13.86 0 21 0 C21 3.63 21 7.26 21 11 C19.35 11 17.7 11 16 11 C17.32 10.67 18.64 10.34 20 10 C20 7.36 20 4.72 20 2 C14.06 2 8.12 2 2 2 C2 4.64 2 7.28 2 10 C2.66 10.33 3.32 10.66 4 11 C2.68 11 1.36 11 0 11 C0 7.37 0 3.74 0 0 Z " fill="#734417" transform="translate(618,651)"/>
<path d="M0 0 C1.59138085 4.17737474 2.21278058 7.53160785 2 12 C0.35 12.33 -1.3 12.66 -3 13 C-3.50833591 11.75336669 -4.00631145 10.50250613 -4.5 9.25 C-4.7784375 8.55390625 -5.056875 7.8578125 -5.34375 7.140625 C-6 5 -6 5 -6 1 C-3 0 -3 0 0 0 Z " fill="#FBF7EB" transform="translate(410,191)"/>
<path d="M0 0 C0.99 0.33 1.98 0.66 3 1 C1.68 2.65 0.36 4.3 -1 6 C-0.1028125 5.505 -0.1028125 5.505 0.8125 5 C3 4 3 4 6 4 C5.50886719 4.55171875 5.01773438 5.1034375 4.51171875 5.671875 C2.69890576 8.46370069 2.6827049 9.96185741 2.8125 13.25 C2.83957031 14.14203125 2.86664062 15.0340625 2.89453125 15.953125 C2.92933594 16.62859375 2.96414063 17.3040625 3 18 C1.35 16.35 -0.3 14.7 -2 13 C-2 14.98 -2 16.96 -2 19 C-4.56400777 16.43599223 -4.32633634 15.31217985 -4.375 11.75 C-4.30624369 6.51764467 -3.39369896 3.92396442 0 0 Z " fill="#FCFAF3" transform="translate(512,175)"/>
<path d="M0 0 C1.65 0 3.3 0 5 0 C4.01 0.33 3.02 0.66 2 1 C2 3.64 2 6.28 2 9 C8.93 9 15.86 9 23 9 C23 9.66 23 10.32 23 11 C15.41 11 7.82 11 0 11 C0 7.37 0 3.74 0 0 Z " fill="#81572D" transform="translate(420,708)"/>
<path d="M0 0 C5.91519254 -0.52814219 9.43161386 0.11080046 14.3671875 3.48828125 C16.72720741 5.67327576 17.42115678 7.88871768 18 11 C15.625 11.625 15.625 11.625 13 12 C12.34 11.34 11.68 10.68 11 10 C11.33 9.01 11.66 8.02 12 7 C11.34 6.67 10.68 6.34 10 6 C10.33 5.01 10.66 4.02 11 3 C7.04 3 3.08 3 -1 3 C-0.67 2.01 -0.34 1.02 0 0 Z " fill="#F2ECDF" transform="translate(517,172)"/>
<path d="M0 0 C1.32 1.32 2.64 2.64 4 4 C4.99 2.68 5.98 1.36 7 0 C7.99 2.97 8.98 5.94 10 9 C8.00045254 9.04254356 5.99958364 9.04080783 4 9 C3.67 8.67 3.34 8.34 3 8 C2.67 8.66 2.34 9.32 2 10 C0.68 10 -0.64 10 -2 10 C-1.34 6.7 -0.68 3.4 0 0 Z " fill="#F4EDDF" transform="translate(480,182)"/>
<path d="M0 0 C9 0 9 0 11.5625 1.5 C12.036875 1.995 12.51125 2.49 13 3 C12.67 4.32 12.34 5.64 12 7 C11.835 6.360625 11.67 5.72125 11.5 5.0625 C11.005 4.381875 10.51 3.70125 10 3 C7.36 2.67 4.72 2.34 2 2 C2 7.94 2 13.88 2 20 C1.34 20 0.68 20 0 20 C0 13.4 0 6.8 0 0 Z " fill="#FDFBF4" transform="translate(280,663)"/>
<path d="M0 0 C1.32 0 2.64 0 4 0 C4 9.57 4 19.14 4 29 C1.28156562 25.37542083 0.58210456 24.19115285 0 20 C0.33 20 0.66 20 1 20 C1.33 13.73 1.66 7.46 2 1 C1.34 0.67 0.68 0.34 0 0 Z " fill="#EFE8DA" transform="translate(785,663)"/>
<path d="M0 0 C1.73107488 3.46214977 1.48819473 7.21490582 1 11 C-0.09708729 13.36185168 -1.3304373 14.96522046 -3 17 C-4 14 -4 14 -3.3125 11.625 C-2.68276325 8.79760828 -2.68276325 8.79760828 -4.9375 6.1875 C-5.618125 5.465625 -6.29875 4.74375 -7 4 C-2.25 0 -2.25 0 0 0 Z " fill="#F7F1E4" transform="translate(278,322)"/>
<path d="M0 0 C4.13342172 1.37780724 5.01794989 3.17747479 7 7 C6.93676407 10.73091969 6.80468884 13.00218584 4.4375 15.9375 C3.963125 16.288125 3.48875 16.63875 3 17 C3 15 3 13 3 11 C2.67 11 2.34 11 2 11 C-0.51351351 3.62702703 -0.51351351 3.62702703 -1 1 C-0.67 0.67 -0.34 0.34 0 0 Z " fill="#F8F2E2" transform="translate(730,268)"/>
<path d="M0 0 C0.99 0 1.98 0 3 0 C4.39453125 1.71484375 4.39453125 1.71484375 5.8125 3.9375 C8.28508373 7.47974399 8.28508373 7.47974399 12.375 9 C13.24125 9 14.1075 9 15 9 C12.02139604 10.65477998 9.43663532 11.91617963 6 12 C2.29664884 9.3066537 1.14804621 7.69467839 0.1875 3.1875 C0.125625 2.135625 0.06375 1.08375 0 0 Z " fill="#FBF5E6" transform="translate(684,252)"/>
<path d="M0 0 C0.99 0.33 1.98 0.66 3 1 C3.37125 2.134375 3.7425 3.26875 4.125 4.4375 C4.76351065 6.38140358 4.76351065 6.38140358 6 8 C8.9411302 9.21629627 11.84476886 9.67587772 15 10 C14.67 11.32 14.34 12.64 14 14 C13.01 14 12.02 14 11 14 C11 13.34 11 12.68 11 12 C8.08517222 11.19032562 6.53886783 10.78154007 3.6875 11.9375 C3.130625 12.288125 2.57375 12.63875 2 13 C0.54815522 8.46298506 -0.23509196 4.81938524 0 0 Z " fill="#F6EFDE" transform="translate(509,184)"/>
<path d="M0 0 C5.15464734 0.48324819 8.81550319 3.18610761 13 6 C12.01 6.33 11.02 6.66 10 7 C9.67 7.66 9.34 8.32 9 9 C5.7 7.35 2.4 5.7 -1 4 C-0.67 2.68 -0.34 1.36 0 0 Z " fill="#6E3C0C" transform="translate(646,211)"/>
<path d="M0 0 C0.3125 2.3125 0.3125 2.3125 0 5 C-2.3832946 6.81883009 -3.95818337 8 -7 8 C-7.66 5.69 -8.32 3.38 -9 1 C-5.64919071 -1.10976881 -3.77897651 -1.0497157 0 0 Z " fill="#77491A" transform="translate(389,207)"/>
<path d="M0 0 C2.99324263 1.0975223 3.84610901 1.67682892 5.25 4.625 C5.4975 5.40875 5.745 6.1925 6 7 C5.34 7.66 4.68 8.32 4 9 C1.12312519 8.77870194 -0.53951144 8.36521506 -2.8125 6.5625 C-4 5 -4 5 -4 3 C-2 1.375 -2 1.375 0 0 Z " fill="#724414" transform="translate(725,271)"/>
<path d="M0 0 C-0.375 2.4375 -0.375 2.4375 -1 5 C-3.73247348 6.36623674 -5.98198902 6.128426 -9 6 C-9.33 5.67 -9.66 5.34 -10 5 C-12.32817964 4.63239269 -14.6618385 4.29758419 -17 4 C-17 3.67 -17 3.34 -17 3 C-16.37351562 2.86722656 -15.74703125 2.73445312 -15.1015625 2.59765625 C-14.28429687 2.42105469 -13.46703125 2.24445313 -12.625 2.0625 C-11.81289063 1.88847656 -11.00078125 1.71445313 -10.1640625 1.53515625 C-3.63652275 -0.07905484 -3.63652275 -0.07905484 0 0 Z " fill="#714113" transform="translate(341,250)"/>
<path d="M0 0 C1.98 0.66 3.96 1.32 6 2 C6.38218767 3.65614657 6.71395102 5.32457024 7 7 C6.67 7.33 6.34 7.66 6 8 C3.30917128 7.82364548 0.67148554 7.38164079 -2 7 C-1.125 1.125 -1.125 1.125 0 0 Z " fill="#7A4F1C" transform="translate(616,197)"/>
<path d="M0 0 C0.33 0 0.66 0 1 0 C1 6.27 1 12.54 1 19 C9.71232786 18.98075714 9.71232786 18.98075714 17 15 C16.8125 16.875 16.8125 16.875 16 19 C10.71598573 21.71749305 5.81875397 21.14021094 0 21 C0 14.07 0 7.14 0 0 Z " fill="#693708" transform="translate(437,662)"/>
<path d="M0 0 C0.66 0.66 1.32 1.32 2 2 C2.99 2 3.98 2 5 2 C5.625 4.375 5.625 4.375 6 7 C5.34 7.66 4.68 8.32 4 9 C3.67 8.67 3.34 8.34 3 8 C2.67 8.66 2.34 9.32 2 10 C3.32 10.33 4.64 10.66 6 11 C3.36 11 0.72 11 -2 11 C-1.85892253 9.54119891 -1.71197585 8.08296449 -1.5625 6.625 C-1.48128906 5.81289062 -1.40007813 5.00078125 -1.31640625 4.1640625 C-1 2 -1 2 0 0 Z " fill="#FBF8EE" transform="translate(562,194)"/>
<path d="M0 0 C0.66 0.33 1.32 0.66 2 1 C1.67 3.97 1.34 6.94 1 10 C-3 11 -3 11 -6 10 C-5.57742724 8.5164999 -5.13643678 7.03823576 -4.6875 5.5625 C-4.32205078 4.32693359 -4.32205078 4.32693359 -3.94921875 3.06640625 C-3.63597656 2.38449219 -3.32273437 1.70257813 -3 1 C-2.01 0.67 -1.02 0.34 0 0 Z " fill="#F5EFE1" transform="translate(608,205)"/>
<path d="M0 0 C0.66 0.33 1.32 0.66 2 1 C1.67 2.65 1.34 4.3 1 6 C-6.42857143 6.14285714 -6.42857143 6.14285714 -10 5 C-10 5.66 -10 6.32 -10 7 C-10.99 6.67 -11.98 6.34 -13 6 C-12.34 4.68 -11.68 3.36 -11 2 C-7.7 2.33 -4.4 2.66 -1 3 C-0.67 2.01 -0.34 1.02 0 0 Z " fill="#F5F0E8" transform="translate(491,164)"/>
<path d="M0 0 C2.12563103 0.11376617 4.2505261 0.24135631 6.375 0.375 C8.15003906 0.47941406 8.15003906 0.47941406 9.9609375 0.5859375 C13 1 13 1 15 3 C14.31292969 2.98839844 13.62585938 2.97679687 12.91796875 2.96484375 C12.01691406 2.95582031 11.11585938 2.94679687 10.1875 2.9375 C9.29417969 2.92589844 8.40085937 2.91429687 7.48046875 2.90234375 C4.86586209 2.88990033 4.86586209 2.88990033 2 4 C2 6.31 2 8.62 2 11 C2.66 11.33 3.32 11.66 4 12 C3.01 12.33 2.02 12.66 1 13 C1 10.36 1 7.72 1 5 C0.34 5 -0.32 5 -1 5 C-0.67 3.35 -0.34 1.7 0 0 Z " fill="#FCF9F0" transform="translate(567,179)"/>
<path d="M0 0 C0.66 0.33 1.32 0.66 2 1 C3.6252073 7.96517413 3.6252073 7.96517413 1.1875 12 C-1 14 -1 14 -3 14 C-2.69024532 12.22868439 -2.37709575 10.45796222 -2.0625 8.6875 C-1.88847656 7.70136719 -1.71445313 6.71523438 -1.53515625 5.69921875 C-1 3 -1 3 0 0 Z " fill="#F2EDDF" transform="translate(229,667)"/>
<path d="M0 0 C6.93 0 13.86 0 21 0 C21 0.33 21 0.66 21 1 C11.595 1.495 11.595 1.495 2 2 C2 4.64 2 7.28 2 10 C2.66 10.33 3.32 10.66 4 11 C2.68 11 1.36 11 0 11 C0 7.37 0 3.74 0 0 Z " fill="#83592B" transform="translate(784,651)"/>
<path d="M0 0 C1.65 0 3.3 0 5 0 C5 9.9 5 19.8 5 30 C2 26 2 26 2.27734375 23.3671875 C2.51582031 22.25601563 2.75429687 21.14484375 3 20 C3.27333115 16.71292667 3.41116117 13.41972074 3.5625 10.125 C3.60568359 9.24585938 3.64886719 8.36671875 3.69335938 7.4609375 C3.79869339 5.30744203 3.89977649 3.15373936 4 1 C2.68 0.67 1.36 0.34 0 0 Z " fill="#E9E1CF" transform="translate(178,662)"/>
<path d="M0 0 C0.99 0.33 1.98 0.66 3 1 C4 4 4 4 3 7 C0.4375 8.1875 0.4375 8.1875 -2 9 C-2.99 7.35 -3.98 5.7 -5 4 C-2.6875 1.9375 -2.6875 1.9375 0 0 Z " fill="#F7F1E4" transform="translate(731,300)"/>
<path d="M0 0 C3.99455527 0.61454696 6.74466336 2.70646737 10 5 C9.01 5.495 9.01 5.495 8 6 C7.34 5.67 6.68 5.34 6 5 C6 5.99 6 6.98 6 8 C3.0280615 6.87548273 0.66559313 5.77706209 -2 4 C-1.34 2.68 -0.68 1.36 0 0 Z " fill="#724315" transform="translate(673,227)"/>
<path d="M0 0 C0.2954439 5.02254631 -0.01485372 7.89542386 -3 12 C-3.99 11.67 -4.98 11.34 -6 11 C-7.31223496 7.06329512 -6.24296256 4.87511856 -5 1 C-1.125 0 -1.125 0 0 0 Z " fill="#F6EFE0" transform="translate(432,201)"/>
<path d="M0 0 C1.32 0.33 2.64 0.66 4 1 C3.01 1.495 3.01 1.495 2 2 C1.34786708 4.02463255 1.34786708 4.02463255 1 6 C1.66 6 2.32 6 3 6 C3 7.65 3 9.3 3 11 C2.01 11 1.02 11 0 11 C-0.33 12.65 -0.66 14.3 -1 16 C-1.66 16 -2.32 16 -3 16 C-2.52013969 10.43109483 -1.70084819 5.32932432 0 0 Z " fill="#F2EBDD" transform="translate(565,178)"/>
<path d="M0 0 C0.66 2.64 1.32 5.28 2 8 C1.01 8.495 1.01 8.495 0 9 C0 8.01 0 7.02 0 6 C-1.65 6.66 -3.3 7.32 -5 8 C-5.33 6.02 -5.66 4.04 -6 2 C-2.25 0 -2.25 0 0 0 Z " fill="#F5F0E5" transform="translate(427,185)"/>
<path d="M0 0 C6.27 0 12.54 0 19 0 C18.67 0.99 18.34 1.98 18 3 C18 2.34 18 1.68 18 1 C13.05 1.66 8.1 2.32 3 3 C3.33 3.99 3.66 4.98 4 6 C2.68 6 1.36 6 0 6 C0 4.02 0 2.04 0 0 Z " fill="#FCFBF5" transform="translate(220,701)"/>
<path d="M0 0 C2.4375 0.8125 2.4375 0.8125 5 2 C5.33 2.99 5.66 3.98 6 5 C6.99 5 7.98 5 9 5 C8 8 8 8 6 10 C5.34 8.68 4.68 7.36 4 6 C1.69 6 -0.62 6 -3 6 C-2.01 4.02 -1.02 2.04 0 0 Z " fill="#FDFAF0" transform="translate(384,201)"/>
<path d="M0 0 C0.99 0.33 1.98 0.66 3 1 C2.67 1.66 2.34 2.32 2 3 C2.66 3.33 3.32 3.66 4 4 C3.54625 4.433125 3.0925 4.86625 2.625 5.3125 C0.79975666 7.10798342 0.79975666 7.10798342 -1 10 C-1.66 10 -2.32 10 -3 10 C-3 9.34 -3 8.68 -3 8 C-3.99 7.34 -4.98 6.68 -6 6 C-4.73577236 3.47154472 -3.47154472 3.23577236 -1 2 C-0.67 1.34 -0.34 0.68 0 0 Z " fill="#F4ECDD" transform="translate(457,200)"/>
<path d="M0 0 C-1.04800781 0.26554687 -2.09601562 0.53109375 -3.17578125 0.8046875 C-4.5547648 1.16115944 -5.93366684 1.51794679 -7.3125 1.875 C-8.34793945 2.13603516 -8.34793945 2.13603516 -9.40429688 2.40234375 C-12.71875562 3.26698516 -15.12278553 4.08185702 -18 6 C-18.66 4.68 -19.32 3.36 -20 2 C-13.51969293 -0.06818311 -6.69196816 -2.00910105 0 0 Z " fill="#F0EADE" transform="translate(767,333)"/>
<path d="M0 0 C0.99 0.33 1.98 0.66 3 1 C2.34 1 1.68 1 1 1 C1 1.99 1 2.98 1 4 C1.90492188 4.07347656 1.90492188 4.07347656 2.828125 4.1484375 C4.02695312 4.26058594 4.02695312 4.26058594 5.25 4.375 C6.03890625 4.44460937 6.8278125 4.51421875 7.640625 4.5859375 C10.085877 5.01507113 11.84836903 5.78600638 14 7 C13.67 8.98 13.34 10.96 13 13 C12.67 13 12.34 13 12 13 C12 11.02 12 9.04 12 7 C8.04 6.67 4.08 6.34 0 6 C-1 2 -1 2 0 0 Z " fill="#703F12" transform="translate(568,195)"/>
<path d="M0 0 C4 3 4 3 4.75 6.1875 C4.8325 7.115625 4.915 8.04375 5 9 C2.69 9.33 0.38 9.66 -2 10 C-1.34 6.7 -0.68 3.4 0 0 Z " fill="#F4EDE0" transform="translate(477,193)"/>
<path d="M0 0 C5.94 0 11.88 0 18 0 C17.01 1.485 17.01 1.485 16 3 C13.19564589 3.05632424 10.64853322 2.95814702 7.875 2.6875 C7.12089844 2.62626953 6.36679687 2.56503906 5.58984375 2.50195312 C3.72536562 2.3485467 1.86247502 2.17606541 0 2 C0 1.34 0 0.68 0 0 Z " fill="#E9DFCF" transform="translate(713,773)"/>
<path d="M0 0 C0.33 0 0.66 0 1 0 C1.33745354 2.39531756 1.6700829 4.79114268 2 7.1875 C2.14308594 8.19780273 2.14308594 8.19780273 2.2890625 9.22851562 C2.78324613 12.84664577 3.11346131 16.34796401 3 20 C2.01 20 1.02 20 0 20 C0.020625 18.845 0.04125 17.69 0.0625 16.5 C0.07305761 13.52275294 -0.13074763 10.69477257 -0.5625 7.75 C-0.92678145 4.62758754 -1.0779213 2.87445681 0 0 Z " fill="#F3EDE1" transform="translate(845,405)"/>
<path d="M0 0 C0.33 0 0.66 0 1 0 C1.33 6.93 1.66 13.86 2 21 C-4.93 20.505 -4.93 20.505 -12 20 C-12 19.67 -12 19.34 -12 19 C-8.04 19 -4.08 19 0 19 C0 12.73 0 6.46 0 0 Z " fill="#8F6737" transform="translate(344,572)"/>
<path d="M0 0 C1.65 1.65 3.3 3.3 5 5 C2.95775363 4.88485851 0.91619841 4.75742674 -1.125 4.625 C-2.26195312 4.55539062 -3.39890625 4.48578125 -4.5703125 4.4140625 C-7.95393616 4.00556124 -10.81612441 3.19032431 -14 2 C-10.73086376 0.96884721 -8.13958652 1.0361016 -4.75 1.4375 C-3.85796875 1.53933594 -2.9659375 1.64117187 -2.046875 1.74609375 C-1.37140625 1.82988281 -0.6959375 1.91367187 0 2 C0 1.34 0 0.68 0 0 Z " fill="#6A390E" transform="translate(309,263)"/>
<path d="M0 0 C-3.465 2.97 -3.465 2.97 -7 6 C-10 2.25 -10 2.25 -10 0 C-2.25 -1.125 -2.25 -1.125 0 0 Z " fill="#724117" transform="translate(771,338)"/>
<path d="M0 0 C-2.475 1.485 -2.475 1.485 -5 3 C-4.67 3.99 -4.34 4.98 -4 6 C-5.98 6 -7.96 6 -10 6 C-9.67 4.02 -9.34 2.04 -9 0 C-3.375 -1.125 -3.375 -1.125 0 0 Z " fill="#FDFBF3" transform="translate(272,336)"/>
<path d="M0 0 C2.97 0.33 5.94 0.66 9 1 C9 1.33 9 1.66 9 2 C7.865625 1.979375 6.73125 1.95875 5.5625 1.9375 C2.18424326 1.58422523 2.18424326 1.58422523 1 3 C3.64 3.33 6.28 3.66 9 4 C9 4.33 9 4.66 9 5 C5.7 5 2.4 5 -1 5 C-0.67 3.35 -0.34 1.7 0 0 Z " fill="#704015" transform="translate(570,185)"/>
<path d="M0 0 C0.33 0 0.66 0 1 0 C1.86870932 3.94867872 2.24076843 6.35372685 0.8125 10.1875 C-0.90648785 12.85489494 -2.64379867 14.88754364 -5 17 C-4.835 15.906875 -4.67 14.81375 -4.5 13.6875 C-3.93281816 10.12474127 -3.93281816 10.12474127 -4 7 C-2.68 7 -1.36 7 0 7 C0 4.69 0 2.38 0 0 Z " fill="#70410E" transform="translate(584,180)"/>
<path d="M0 0 C0.66 0.33 1.32 0.66 2 1 C1.0653305 2.58500588 0.12713737 4.16793416 -0.8125 5.75 C-1.33457031 6.63171875 -1.85664062 7.5134375 -2.39453125 8.421875 C-3.82546696 10.71972797 -5.33894423 12.86506946 -7 15 C-6.44271087 11.65626525 -5.64826111 8.96687001 -4 6 C-4.66 5.67 -5.32 5.34 -6 5 C-4.02 3.35 -2.04 1.7 0 0 Z " fill="#6E3F13" transform="translate(742,300)"/>
<path d="M0 0 C5.75 -0.125 5.75 -0.125 8 1 C7.34 2.65 6.68 4.3 6 6 C4.35 5.67 2.7 5.34 1 5 C0.67 3.35 0.34 1.7 0 0 Z " fill="#F6F1E3" transform="translate(653,210)"/>
<path d="M0 0 C0.66 0.33 1.32 0.66 2 1 C2 2.65 2 4.3 2 6 C-0.64 6.99 -3.28 7.98 -6 9 C-5.67 7.02 -5.34 5.04 -5 3 C-4.01 3 -3.02 3 -2 3 C-1.34 2.01 -0.68 1.02 0 0 Z " fill="#F1EADB" transform="translate(394,205)"/>
<path d="M0 0 C-0.33 0.99 -0.66 1.98 -1 3 C-3.97 2.505 -3.97 2.505 -7 2 C-7 2.66 -7 3.32 -7 4 C-8.98 4 -10.96 4 -13 4 C-13 3.01 -13 2.02 -13 1 C-8.62426048 0.40667939 -4.42471556 -0.13827236 0 0 Z " fill="#815726" transform="translate(564,849)"/>
<path d="M0 0 C1.74627478 2.61941217 2.38722388 4.03824877 3 7 C1.35 7.66 -0.3 8.32 -2 9 C-2.99 8.01 -3.98 7.02 -5 6 C-4.67 5.01 -4.34 4.02 -4 3 C-2.68 3 -1.36 3 0 3 C0 2.01 0 1.02 0 0 Z " fill="#F5EDDE" transform="translate(412,200)"/>
<path d="M0 0 C2.6855594 2.6855594 3.06049974 5.37621328 4 9 C2.02 9 0.04 9 -2 9 C-1.34 6.03 -0.68 3.06 0 0 Z " fill="#784A1D" transform="translate(486,182)"/>
<path d="M0 0 C0.99 0 1.98 0 3 0 C3.433125 1.11375 3.433125 1.11375 3.875 2.25 C4.82302644 4.56739797 5.84845911 6.77917115 7 9 C6.01 9.495 6.01 9.495 5 10 C1.32769295 6.92000054 0.43197635 4.7517398 0 0 Z " fill="#F6F0DF" transform="translate(617,213)"/>
<path d="M0 0 C1.76462683 3.08809695 2 4.23312136 2 8 C0.68 8.33 -0.64 8.66 -2 9 C-2.33 6.69 -2.66 4.38 -3 2 C-2.01 1.34 -1.02 0.68 0 0 Z " fill="#FBF8EF" transform="translate(459,205)"/>
<path d="M0 0 C1.32 0.33 2.64 0.66 4 1 C3.34 4.63 2.68 8.26 2 12 C1.34 12 0.68 12 0 12 C0 8.04 0 4.08 0 0 Z " fill="#FEFDF7" transform="translate(259,707)"/>
<path d="M0 0 C1.12758089 3.38274266 0.81750262 4.76778223 0.0625 8.1875 C-0.13214844 9.08855469 -0.32679688 9.98960937 -0.52734375 10.91796875 C-0.68332031 11.60503906 -0.83929687 12.29210937 -1 13 C-1.66 13 -2.32 13 -3 13 C-3.31563182 7.73946963 -2.66590937 4.55426184 0 0 Z " fill="#744719" transform="translate(699,662)"/>
<path d="M0 0 C2.97 0.33 5.94 0.66 9 1 C7.02 1.99 7.02 1.99 5 3 C6.98 5.31 8.96 7.62 11 10 C7.54071256 8.27035628 5.85587507 7.10462427 3.25 4.4375 C2.63640625 3.81746094 2.0228125 3.19742187 1.390625 2.55859375 C0 1 0 1 0 0 Z " fill="#6D3A10" transform="translate(304,273)"/>
<path d="M0 0 C2.97 0.495 2.97 0.495 6 1 C6 2.66666667 6 4.33333333 6 6 C3.69 6 1.38 6 -1 6 C-0.67 4.02 -0.34 2.04 0 0 Z " fill="#FBF9F2" transform="translate(331,256)"/>
<path d="M0 0 C1.32 0.33 2.64 0.66 4 1 C3.3125 2.9375 3.3125 2.9375 2 5 C-0.5 5.875 -0.5 5.875 -3 6 C-3.66 5.34 -4.32 4.68 -5 4 C-4.0409375 3.8453125 -4.0409375 3.8453125 -3.0625 3.6875 C-2.381875 3.460625 -1.70125 3.23375 -1 3 C-0.67 2.01 -0.34 1.02 0 0 Z " fill="#FAF5E5" transform="translate(336,243)"/>
<path d="M0 0 C0.598125 0.20625 1.19625 0.4125 1.8125 0.625 C-1.1875 2.625 -1.1875 2.625 -4.1875 2.625 C-4.1875 3.285 -4.1875 3.945 -4.1875 4.625 C-3.589375 4.274375 -2.99125 3.92375 -2.375 3.5625 C-0.1875 2.625 -0.1875 2.625 2.8125 3.625 C-0.32248292 5.48276765 -2.56221432 5.82640476 -6.1875 5.625 C-5.875 3.75 -5.875 3.75 -5.1875 1.625 C-2.1875 -0.375 -2.1875 -0.375 0 0 Z " fill="#703F15" transform="translate(332.1875,240.375)"/>
<path d="M0 0 C4.75 0.75 4.75 0.75 7 3 C7.33 3.99 7.66 4.98 8 6 C4.17902761 5.46930939 1.93828597 4.50298434 -1 2 C-0.67 1.34 -0.34 0.68 0 0 Z " fill="#7C5020" transform="translate(646,211)"/>
<path d="M0 0 C1.51400391 0.01740234 1.51400391 0.01740234 3.05859375 0.03515625 C4.07050781 0.04417969 5.08242188 0.05320313 6.125 0.0625 C7.29869141 0.07990234 7.29869141 0.07990234 8.49609375 0.09765625 C8.49609375 0.42765625 8.49609375 0.75765625 8.49609375 1.09765625 C6.51609375 1.75765625 4.53609375 2.41765625 2.49609375 3.09765625 C2.49609375 3.75765625 2.49609375 4.41765625 2.49609375 5.09765625 C0.84609375 5.09765625 -0.80390625 5.09765625 -2.50390625 5.09765625 C-3.06640625 3.16015625 -3.06640625 3.16015625 -3.50390625 1.09765625 C-2.50390625 0.09765625 -2.50390625 0.09765625 0 0 Z " fill="#F3EEDE" transform="translate(567.50390625,200.90234375)"/>
<path d="M0 0 C1.32 0.66 2.64 1.32 4 2 C3.67 2.66 3.34 3.32 3 4 C2.34 4 1.68 4 1 4 C0.67 5.32 0.34 6.64 0 8 C-0.66 7.34 -1.32 6.68 -2 6 C-2 5.01 -2 4.02 -2 3 C-2.66 2.67 -3.32 2.34 -4 2 C-2.68 2 -1.36 2 0 2 C0 1.34 0 0.68 0 0 Z " fill="#F3ECDC" transform="translate(720,276)"/>
<path d="M0 0 C0.33 0 0.66 0 1 0 C1.06058594 0.77085937 1.12117188 1.54171875 1.18359375 2.3359375 C1.26738281 3.33882812 1.35117187 4.34171875 1.4375 5.375 C1.55931641 6.87160156 1.55931641 6.87160156 1.68359375 8.3984375 C1.84965626 10.97927613 1.84965626 10.97927613 3 13 C1.5625 15.625 1.5625 15.625 0 18 C-0.66 17.67 -1.32 17.34 -2 17 C-1.505 15.515 -1.505 15.515 -1 14 C-0.77439324 11.60745424 -0.59151405 9.21071877 -0.4375 6.8125 C-0.35371094 5.54019531 -0.26992188 4.26789062 -0.18359375 2.95703125 C-0.12300781 1.98121094 -0.06242187 1.00539063 0 0 Z " fill="#DFD1B8" transform="translate(467,665)"/>
<path d="M0 0 C1.134375 0.020625 2.26875 0.04125 3.4375 0.0625 C2.7775 1.7125 2.1175 3.3625 1.4375 5.0625 C-0.2125 5.0625 -1.8625 5.0625 -3.5625 5.0625 C-4.125 3.125 -4.125 3.125 -4.5625 1.0625 C-3.5625 0.0625 -3.5625 0.0625 0 0 Z " fill="#FDFAF1" transform="translate(453.5625,200.9375)"/>
<path d="M0 0 C0 1.98 0 3.96 0 6 C-0.99 5.34 -1.98 4.68 -3 4 C-3.99 4.66 -4.98 5.32 -6 6 C-6 4.02 -6 2.04 -6 0 C-3 -1 -3 -1 0 0 Z " fill="#FDFAF0" transform="translate(535,183)"/>
<path d="M0 0 C0.33 0 0.66 0 1 0 C1.05389087 1.95803507 1.09274217 3.91648909 1.125 5.875 C1.14820313 6.96554687 1.17140625 8.05609375 1.1953125 9.1796875 C1 12 1 12 -1 14 C-2.41933513 9.74199462 -2.72651677 5.77088462 -1 1.5625 C-0.67 1.046875 -0.34 0.53125 0 0 Z " fill="#825824" transform="translate(187,433)"/>
<path d="M0 0 C2.375 -0.1875 2.375 -0.1875 5 0 C5.66 0.99 6.32 1.98 7 3 C6.34 4.32 5.68 5.64 5 7 C4.34 6.67 3.68 6.34 3 6 C3.33 5.34 3.66 4.68 4 4 C1.525 3.01 1.525 3.01 -1 2 C-0.67 1.34 -0.34 0.68 0 0 Z " fill="#F2EDE1" transform="translate(330,234)"/>
<path d="M0 0 C0.66 0.33 1.32 0.66 2 1 C1.67 2.65 1.34 4.3 1 6 C-1.64 5.67 -4.28 5.34 -7 5 C-6.67 3.68 -6.34 2.36 -6 1 C-5.67 1.99 -5.34 2.98 -5 4 C-3.68 4 -2.36 4 -1 4 C-0.67 2.68 -0.34 1.36 0 0 Z " fill="#6C3C10" transform="translate(621,199)"/>
<path d="M0 0 C3.3 0.66 6.6 1.32 10 2 C6.71299843 3.64350079 4.52069985 4.41321669 1 5 C0.34 4.01 -0.32 3.02 -1 2 C-0.67 1.34 -0.34 0.68 0 0 Z " fill="#F2EAD8" transform="translate(689,259)"/>
<path d="M0 0 C0.33 0 0.66 0 1 0 C0.88570603 1.77155654 0.75816963 3.54226229 0.625 5.3125 C0.55539062 6.29863281 0.48578125 7.28476563 0.4140625 8.30078125 C0 11 0 11 -2 14 C-2 12.68 -2 11.36 -2 10 C-2.66 10 -3.32 10 -4 10 C-3 7 -3 7 -1 4 C-0.36707617 1.88719655 -0.36707617 1.88719655 0 0 Z " fill="#6D3D0D" transform="translate(563,179)"/>
<path d="M0 0 C3.375 -0.1875 3.375 -0.1875 7 0 C7.66 0.99 8.32 1.98 9 3 C5.7 3 2.4 3 -1 3 C-0.67 2.01 -0.34 1.02 0 0 Z " fill="#815827" transform="translate(533,837)"/>
<path d="M0 0 C1.32 0.66 2.64 1.32 4 2 C3.67 2.99 3.34 3.98 3 5 C0.69 5.33 -1.62 5.66 -4 6 C-4 5.01 -4 4.02 -4 3 C-2.68 3.33 -1.36 3.66 0 4 C0 2.68 0 1.36 0 0 Z " fill="#F5F0E3" transform="translate(619,192)"/>
<path d="M0 0 C0.33 0 0.66 0 1 0 C1 3.96 1 7.92 1 12 C0.01 12.33 -0.98 12.66 -2 13 C-2 10.69 -2 8.38 -2 6 C-1.67 6 -1.34 6 -1 6 C-0.67 4.02 -0.34 2.04 0 0 Z " fill="#825926" transform="translate(851,472)"/>
<path d="M0 0 C3.63 0.33 7.26 0.66 11 1 C11 1.66 11 2.32 11 3 C7.37 3 3.74 3 0 3 C0 2.01 0 1.02 0 0 Z " fill="#F0EADD" transform="translate(302,271)"/>
<path d="M0 0 C0 0.66 0 1.32 0 2 C0.66 2.66 1.32 3.32 2 4 C-0.64 3.67 -3.28 3.34 -6 3 C-6 2.01 -6 1.02 -6 0 C-3.50907189 -1.24546405 -2.58919267 -0.7767578 0 0 Z " fill="#855C28" transform="translate(575,196)"/>
<path d="M0 0 C0.99 0.33 1.98 0.66 3 1 C2.34 1 1.68 1 1 1 C1 1.66 1 2.32 1 3 C3.64 2.67 6.28 2.34 9 2 C8.67 2.66 8.34 3.32 8 4 C6.00116131 4.34022786 4.00109278 4.67329097 2 5 C1.34 5.66 0.68 6.32 0 7 C-1.125 2.25 -1.125 2.25 0 0 Z " fill="#693407" transform="translate(481,169)"/>
<path d="M0 0 C2.4294516 3.6441774 2.16179575 5.71241272 2 10 C1.01 9.67 0.02 9.34 -1 9 C-1.09765625 2.84765625 -1.09765625 2.84765625 -1 1 C-0.67 0.67 -0.34 0.34 0 0 Z " fill="#835924" transform="translate(475,687)"/>
<path d="M0 0 C0.99 0.33 1.98 0.66 3 1 C2.01 2.485 2.01 2.485 1 4 C2.65 3.67 4.3 3.34 6 3 C5.01 4.485 5.01 4.485 4 6 C2.125 5.6875 2.125 5.6875 0 5 C-0.66 4.01 -1.32 3.02 -2 2 C-1.34 1.34 -0.68 0.68 0 0 Z " fill="#FCFAF3" transform="translate(707,277)"/>
<path d="M0 0 C-0.33 3.63 -0.66 7.26 -1 11 C-1.33 11 -1.66 11 -2 11 C-2 7.7 -2 4.4 -2 1 C-3.65 1 -5.3 1 -7 1 C-3.375 -1.125 -3.375 -1.125 0 0 Z " fill="#F0E8D5" transform="translate(287,707)"/>
<path d="M0 0 C0.99 0.33 1.98 0.66 3 1 C1.45294267 4.09411467 -0.88071772 4.71558965 -4 6 C-6.375 5.6875 -6.375 5.6875 -8 5 C-7.05125 4.54625 -6.1025 4.0925 -5.125 3.625 C-1.99686321 2.19761746 -1.99686321 2.19761746 0 0 Z " fill="#FDFAF3" transform="translate(292,302)"/>
<path d="M0 0 C1.485 0.99 1.485 0.99 3 2 C3.99 2.33 4.98 2.66 6 3 C5.67 3.99 5.34 4.98 5 6 C3.125 5.75 3.125 5.75 1 5 C-0.25 2.9375 -0.25 2.9375 -1 1 C-0.67 0.67 -0.34 0.34 0 0 Z " fill="#F3ECE2" transform="translate(361,237)"/>
<path d="M0 0 C2.2477975 2.05233685 3.0022242 3.00667261 4 6 C3.01 7.485 3.01 7.485 2 9 C0 7 0 7 -0.125 3.375 C-0.08375 2.26125 -0.0425 1.1475 0 0 Z " fill="#F6F3E9" transform="translate(159,675)"/>
<path d="M0 0 C1.98 0 3.96 0 6 0 C6 3.3 6 6.6 6 10 C5.67 10 5.34 10 5 10 C4.87625 8.3603125 4.87625 8.3603125 4.75 6.6875 C4.36310791 2.96723336 4.36310791 2.96723336 1.9375 1.0625 C1.298125 0.711875 0.65875 0.36125 0 0 Z " fill="#DCCDB5" transform="translate(674,662)"/>
<path d="M0 0 C0.66 0 1.32 0 2 0 C1.38461538 6.52307692 1.38461538 6.52307692 -0.5625 8.9375 C-1.036875 9.288125 -1.51125 9.63875 -2 10 C-2 6.38970831 -1.03907418 3.44193324 0 0 Z " fill="#EFE8DE" transform="translate(735,275)"/>
<path d="M0 0 C3.25543229 0.34879632 4.01873107 1.02133261 6.25 3.5625 C6.8275 4.366875 7.405 5.17125 8 6 C5 6 5 6 3.3125 4.625 C2 3 2 3 2 1 C1.34 0.67 0.68 0.34 0 0 Z " fill="#EEE8DA" transform="translate(662,297)"/>
<path d="M0 0 C1.0625 1.8125 1.0625 1.8125 2 4 C1.67 4.99 1.34 5.98 1 7 C-0.98 5.68 -2.96 4.36 -5 3 C-4.360625 2.690625 -3.72125 2.38125 -3.0625 2.0625 C-1.06389179 1.1654837 -1.06389179 1.1654837 0 0 Z " fill="#FCF8F1" transform="translate(527,175)"/>
<path d="M0 0 C0.66 0 1.32 0 2 0 C1.875 1.75 1.875 1.75 1 4 C-2.0625 6.25 -2.0625 6.25 -5 8 C-3.63055898 5.05043472 -2.12169591 2.47531189 0 0 Z " fill="#FCFAF1" transform="translate(520,709)"/>
<path d="M0 0 C1.85776765 3.13498292 2.20140476 5.37471432 2 9 C0.5 7.8125 0.5 7.8125 -1 6 C-1.25 3.375 -1.25 3.375 -1 1 C-0.67 0.67 -0.34 0.34 0 0 Z " fill="#734515" transform="translate(182,540)"/>
<path d="M0 0 C-1 1.5625 -1 1.5625 -3 3 C-5.76614782 2.96726452 -8.26030547 2.49404328 -11 2 C-11 1.67 -11 1.34 -11 1 C-7.27569643 0.30710631 -3.78916254 -0.11144596 0 0 Z " fill="#7C512D" transform="translate(753,312)"/>
<path d="M0 0 C3 1 3 1 4 3 C3.01 3 2.02 3 1 3 C1 3.66 1 4.32 1 5 C0.01 4.67 -0.98 4.34 -2 4 C-1.34 2.68 -0.68 1.36 0 0 Z " fill="#EFE9DE" transform="translate(480,166)"/>
<path d="M0 0 C2.31 0 4.62 0 7 0 C7.33 0.99 7.66 1.98 8 3 C5.69 3 3.38 3 1 3 C0.67 2.01 0.34 1.02 0 0 Z " fill="#865D2A" transform="translate(470,143)"/>
</svg>
